<svg xmlns="http://www.w3.org/2000/svg" xmlns:xlink="http://www.w3.org/1999/xlink" version="1.1" viewBox="0 0 1440 720" width="100%">
 <defs>
  <style type="text/css">
*{stroke-linecap:butt;stroke-linejoin:round;}
  </style>
 </defs>
 <g id="figure_1">
  <g id="patch_1">
   <path d="M 0 720  L 1440 720  L 1440 0  L 0 0  z " style="fill:#ffffff;"/>
  </g>
  <g id="axes_1">
   <g id="patch_2">
    <path d="M 40.36 533.809591  L 1429.2 533.809591  L 1429.2 10.8  L 40.36 10.8  z " style="fill:#ffffff;"/>
   </g>
   <g id="patch_3">
    <a xlink:href="/data/metabolic/result?table=MET_Concentrations">
     <path clip-path="url(#pc0f5f34f06)" d="M 103.489091 128310.033639  L 149.822369 128310.033639  L 149.822369 34.573163  L 103.489091 34.573163  z " style="fill:#4c72b0;"/>
    </a>
   </g>
   <g id="patch_4">
    <a xlink:href="/data/metabolic/result?table=MET_EnzymeActivities">
     <path clip-path="url(#pc0f5f34f06)" d="M 161.405688 128310.033639  L 207.738966 128310.033639  L 207.738966 324.665481  L 161.405688 324.665481  z " style="fill:#4c72b0;"/>
    </a>
   </g>
   <g id="patch_5">
    <a xlink:href="/data/metabolic/result?table=MET_LipidAbundance">
     <path clip-path="url(#pc0f5f34f06)" d="M 219.322285 128310.033639  L 265.655563 128310.033639  L 265.655563 193.846965  L 219.322285 193.846965  z " style="fill:#4c72b0;"/>
    </a>
   </g>
   <g id="patch_6">
    <a xlink:href="/data/metabolic/result?table=MET_Secretion">
     <path clip-path="url(#pc0f5f34f06)" d="M 277.238882 128310.033639  L 323.57216 128310.033639  L 323.57216 322.53317  L 277.238882 322.53317  z " style="fill:#4c72b0;"/>
    </a>
   </g>
   <g id="patch_7">
    <a xlink:href="/data/metabolic/result?table=MET_Uptake">
     <path clip-path="url(#pc0f5f34f06)" d="M 335.15548 128310.033639  L 381.488757 128310.033639  L 381.488757 311.219501  L 335.15548 311.219501  z " style="fill:#4c72b0;"/>
    </a>
   </g>
   <g id="patch_8">
    <a xlink:href="/data/proteomic/result?table=GEX_ProteinAbundance">
     <path clip-path="url(#pc0f5f34f06)" d="M 393.072077 128310.033639  L 439.405354 128310.033639  L 439.405354 69.380497  L 393.072077 69.380497  z " style="fill:#dd8452;"/>
    </a>
   </g>
   <g id="patch_9">
    <a xlink:href="/data/proteomic/result?table=GEX_ProteinDegradation">
     <path clip-path="url(#pc0f5f34f06)" d="M 450.988674 128310.033639  L 497.321952 128310.033639  L 497.321952 214.590389  L 450.988674 214.590389  z " style="fill:#dd8452;"/>
    </a>
   </g>
   <g id="patch_10">
    <a xlink:href="/data/proteomic/result?table=GEX_ProteinSynthesis">
     <path clip-path="url(#pc0f5f34f06)" d="M 508.905271 128310.033639  L 555.238549 128310.033639  L 555.238549 190.860108  L 508.905271 190.860108  z " style="fill:#dd8452;"/>
    </a>
   </g>
   <g id="patch_11">
    <a xlink:href="/data/proteomic/result?table=GEX_TranslationEfficiencies">
     <path clip-path="url(#pc0f5f34f06)" d="M 566.821868 128310.033639  L 613.155146 128310.033639  L 613.155146 120.189775  L 566.821868 120.189775  z " style="fill:#dd8452;"/>
    </a>
   </g>
   <g id="patch_12">
    <a xlink:href="/data/proteomic/result?table=GEX_mRNAAbundance">
     <path clip-path="url(#pc0f5f34f06)" d="M 624.738465 128310.033639  L 671.071743 128310.033639  L 671.071743 66.649253  L 624.738465 66.649253  z " style="fill:#dd8452;"/>
    </a>
   </g>
   <g id="patch_13">
    <a xlink:href="/data/proteomic/result?table=GEX_mRNASynthesis">
     <path clip-path="url(#pc0f5f34f06)" d="M 682.655063 128310.033639  L 728.98834 128310.033639  L 728.98834 191.309279  L 682.655063 191.309279  z " style="fill:#dd8452;"/>
    </a>
   </g>
   <g id="patch_14">
    <a xlink:href="/data/biophysical/result?table=CDC_CCPhases">
     <path clip-path="url(#pc0f5f34f06)" d="M 740.57166 128310.033639  L 786.904937 128310.033639  L 786.904937 352.621075  L 740.57166 352.621075  z " style="fill:#55a868;"/>
    </a>
   </g>
   <g id="patch_15">
    <a xlink:href="/data/biophysical/result?table=General_CellDensity">
     <path clip-path="url(#pc0f5f34f06)" d="M 798.488257 128310.033639  L 844.821535 128310.033639  L 844.821535 510.036428  L 798.488257 510.036428  z " style="fill:#55a868;"/>
    </a>
   </g>
   <g id="patch_16">
    <a xlink:href="/data/biophysical/result?table=General_CellNumber">
     <path clip-path="url(#pc0f5f34f06)" d="M 856.404854 128310.033639  L 902.738132 128310.033639  L 902.738132 346.97893  L 856.404854 346.97893  z " style="fill:#55a868;"/>
    </a>
   </g>
   <g id="patch_17">
    <a xlink:href="/data/biophysical/result?table=General_CellSize">
     <path clip-path="url(#pc0f5f34f06)" d="M 914.321451 128310.033639  L 960.654729 128310.033639  L 960.654729 447.120802  L 914.321451 447.120802  z " style="fill:#55a868;"/>
    </a>
   </g>
   <g id="patch_18">
    <a xlink:href="/data/biophysical/result?table=General_DryWeight">
     <path clip-path="url(#pc0f5f34f06)" d="M 972.238048 128310.033639  L 1018.571326 128310.033639  L 1018.571326 326.657309  L 972.238048 326.657309  z " style="fill:#55a868;"/>
    </a>
   </g>
   <g id="patch_19">
    <a xlink:href="/data/biophysical/result?table=General_DryWeightComposition">
     <path clip-path="url(#pc0f5f34f06)" d="M 1030.154646 128310.033639  L 1076.487923 128310.033639  L 1076.487923 301.32644  L 1030.154646 301.32644  z " style="fill:#55a868;"/>
    </a>
   </g>
   <g id="patch_20">
    <a xlink:href="/data/biophysical/result?table=General_GrowthRates">
     <path clip-path="url(#pc0f5f34f06)" d="M 1088.071243 128310.033639  L 1134.40452 128310.033639  L 1134.40452 451.228848  L 1088.071243 451.228848  z " style="fill:#55a868;"/>
    </a>
   </g>
   <g id="patch_21">
    <a xlink:href="/data/biophysical/result?table=General_MacromoleculeAndOrganelleNumbers">
     <path clip-path="url(#pc0f5f34f06)" d="M 1145.98784 128310.033639  L 1192.321118 128310.033639  L 1192.321118 494.089276  L 1145.98784 494.089276  z " style="fill:#55a868;"/>
    </a>
   </g>
   <g id="patch_22">
    <a xlink:href="/data/biophysical/result?table=General_Yield">
     <path clip-path="url(#pc0f5f34f06)" d="M 1203.904437 128310.033639  L 1250.237715 128310.033639  L 1250.237715 367.381174  L 1203.904437 367.381174  z " style="fill:#55a868;"/>
    </a>
   </g>
   <g id="patch_23">
    <a xlink:href="/data/biophysical/result?table=VOL_BudIndex">
     <path clip-path="url(#pc0f5f34f06)" d="M 1261.821034 128310.033639  L 1308.154312 128310.033639  L 1308.154312 355.011602  L 1261.821034 355.011602  z " style="fill:#55a868;"/>
    </a>
   </g>
   <g id="patch_24">
    <a xlink:href="/data/biophysical/result?table=VOL_CellVolumes">
     <path clip-path="url(#pc0f5f34f06)" d="M 1319.737631 128310.033639  L 1366.070909 128310.033639  L 1366.070909 300.406659  L 1319.737631 300.406659  z " style="fill:#55a868;"/>
    </a>
   </g>
   <g id="matplotlib.axis_1">
    <g id="xtick_1">
     <g id="line2d_1">
      <defs>
       <path d="M 0 0  L 0 3.5  " id="m98c8866225" style="stroke:#000000;stroke-width:0.8;"/>
      </defs>
      <g>
       <use style="stroke:#000000;stroke-width:0.8;" x="126.65573" xlink:href="#m98c8866225" y="533.809591"/>
      </g>
     </g>
     <g id="text_1">
      <!-- Concentrations -->
      <defs>
       <path d="M 64.40625 67.28125  L 64.40625 56.890625  Q 59.421875 61.53125 53.78125 63.8125  Q 48.140625 66.109375 41.796875 66.109375  Q 29.296875 66.109375 22.65625 58.46875  Q 16.015625 50.828125 16.015625 36.375  Q 16.015625 21.96875 22.65625 14.328125  Q 29.296875 6.6875 41.796875 6.6875  Q 48.140625 6.6875 53.78125 8.984375  Q 59.421875 11.28125 64.40625 15.921875  L 64.40625 5.609375  Q 59.234375 2.09375 53.4375 0.328125  Q 47.65625 -1.421875 41.21875 -1.421875  Q 24.65625 -1.421875 15.125 8.703125  Q 5.609375 18.84375 5.609375 36.375  Q 5.609375 53.953125 15.125 64.078125  Q 24.65625 74.21875 41.21875 74.21875  Q 47.75 74.21875 53.53125 72.484375  Q 59.328125 70.75 64.40625 67.28125  z " id="DejaVuSans-67"/>
       <path d="M 30.609375 48.390625  Q 23.390625 48.390625 19.1875 42.75  Q 14.984375 37.109375 14.984375 27.296875  Q 14.984375 17.484375 19.15625 11.84375  Q 23.34375 6.203125 30.609375 6.203125  Q 37.796875 6.203125 41.984375 11.859375  Q 46.1875 17.53125 46.1875 27.296875  Q 46.1875 37.015625 41.984375 42.703125  Q 37.796875 48.390625 30.609375 48.390625  z M 30.609375 56  Q 42.328125 56 49.015625 48.375  Q 55.71875 40.765625 55.71875 27.296875  Q 55.71875 13.875 49.015625 6.21875  Q 42.328125 -1.421875 30.609375 -1.421875  Q 18.84375 -1.421875 12.171875 6.21875  Q 5.515625 13.875 5.515625 27.296875  Q 5.515625 40.765625 12.171875 48.375  Q 18.84375 56 30.609375 56  z " id="DejaVuSans-111"/>
       <path d="M 54.890625 33.015625  L 54.890625 0  L 45.90625 0  L 45.90625 32.71875  Q 45.90625 40.484375 42.875 44.328125  Q 39.84375 48.1875 33.796875 48.1875  Q 26.515625 48.1875 22.3125 43.546875  Q 18.109375 38.921875 18.109375 30.90625  L 18.109375 0  L 9.078125 0  L 9.078125 54.6875  L 18.109375 54.6875  L 18.109375 46.1875  Q 21.34375 51.125 25.703125 53.5625  Q 30.078125 56 35.796875 56  Q 45.21875 56 50.046875 50.171875  Q 54.890625 44.34375 54.890625 33.015625  z " id="DejaVuSans-110"/>
       <path d="M 48.78125 52.59375  L 48.78125 44.1875  Q 44.96875 46.296875 41.140625 47.34375  Q 37.3125 48.390625 33.40625 48.390625  Q 24.65625 48.390625 19.8125 42.84375  Q 14.984375 37.3125 14.984375 27.296875  Q 14.984375 17.28125 19.8125 11.734375  Q 24.65625 6.203125 33.40625 6.203125  Q 37.3125 6.203125 41.140625 7.25  Q 44.96875 8.296875 48.78125 10.40625  L 48.78125 2.09375  Q 45.015625 0.34375 40.984375 -0.53125  Q 36.96875 -1.421875 32.421875 -1.421875  Q 20.0625 -1.421875 12.78125 6.34375  Q 5.515625 14.109375 5.515625 27.296875  Q 5.515625 40.671875 12.859375 48.328125  Q 20.21875 56 33.015625 56  Q 37.15625 56 41.109375 55.140625  Q 45.0625 54.296875 48.78125 52.59375  z " id="DejaVuSans-99"/>
       <path d="M 56.203125 29.59375  L 56.203125 25.203125  L 14.890625 25.203125  Q 15.484375 15.921875 20.484375 11.0625  Q 25.484375 6.203125 34.421875 6.203125  Q 39.59375 6.203125 44.453125 7.46875  Q 49.3125 8.734375 54.109375 11.28125  L 54.109375 2.78125  Q 49.265625 0.734375 44.1875 -0.34375  Q 39.109375 -1.421875 33.890625 -1.421875  Q 20.796875 -1.421875 13.15625 6.1875  Q 5.515625 13.8125 5.515625 26.8125  Q 5.515625 40.234375 12.765625 48.109375  Q 20.015625 56 32.328125 56  Q 43.359375 56 49.78125 48.890625  Q 56.203125 41.796875 56.203125 29.59375  z M 47.21875 32.234375  Q 47.125 39.59375 43.09375 43.984375  Q 39.0625 48.390625 32.421875 48.390625  Q 24.90625 48.390625 20.390625 44.140625  Q 15.875 39.890625 15.1875 32.171875  z " id="DejaVuSans-101"/>
       <path d="M 18.3125 70.21875  L 18.3125 54.6875  L 36.8125 54.6875  L 36.8125 47.703125  L 18.3125 47.703125  L 18.3125 18.015625  Q 18.3125 11.328125 20.140625 9.421875  Q 21.96875 7.515625 27.59375 7.515625  L 36.8125 7.515625  L 36.8125 0  L 27.59375 0  Q 17.1875 0 13.234375 3.875  Q 9.28125 7.765625 9.28125 18.015625  L 9.28125 47.703125  L 2.6875 47.703125  L 2.6875 54.6875  L 9.28125 54.6875  L 9.28125 70.21875  z " id="DejaVuSans-116"/>
       <path d="M 41.109375 46.296875  Q 39.59375 47.171875 37.8125 47.578125  Q 36.03125 48 33.890625 48  Q 26.265625 48 22.1875 43.046875  Q 18.109375 38.09375 18.109375 28.8125  L 18.109375 0  L 9.078125 0  L 9.078125 54.6875  L 18.109375 54.6875  L 18.109375 46.1875  Q 20.953125 51.171875 25.484375 53.578125  Q 30.03125 56 36.53125 56  Q 37.453125 56 38.578125 55.875  Q 39.703125 55.765625 41.0625 55.515625  z " id="DejaVuSans-114"/>
       <path d="M 34.28125 27.484375  Q 23.390625 27.484375 19.1875 25  Q 14.984375 22.515625 14.984375 16.5  Q 14.984375 11.71875 18.140625 8.90625  Q 21.296875 6.109375 26.703125 6.109375  Q 34.1875 6.109375 38.703125 11.40625  Q 43.21875 16.703125 43.21875 25.484375  L 43.21875 27.484375  z M 52.203125 31.203125  L 52.203125 0  L 43.21875 0  L 43.21875 8.296875  Q 40.140625 3.328125 35.546875 0.953125  Q 30.953125 -1.421875 24.3125 -1.421875  Q 15.921875 -1.421875 10.953125 3.296875  Q 6 8.015625 6 15.921875  Q 6 25.140625 12.171875 29.828125  Q 18.359375 34.515625 30.609375 34.515625  L 43.21875 34.515625  L 43.21875 35.40625  Q 43.21875 41.609375 39.140625 45  Q 35.0625 48.390625 27.6875 48.390625  Q 23 48.390625 18.546875 47.265625  Q 14.109375 46.140625 10.015625 43.890625  L 10.015625 52.203125  Q 14.9375 54.109375 19.578125 55.046875  Q 24.21875 56 28.609375 56  Q 40.484375 56 46.34375 49.84375  Q 52.203125 43.703125 52.203125 31.203125  z " id="DejaVuSans-97"/>
       <path d="M 9.421875 54.6875  L 18.40625 54.6875  L 18.40625 0  L 9.421875 0  z M 9.421875 75.984375  L 18.40625 75.984375  L 18.40625 64.59375  L 9.421875 64.59375  z " id="DejaVuSans-105"/>
       <path d="M 44.28125 53.078125  L 44.28125 44.578125  Q 40.484375 46.53125 36.375 47.5  Q 32.28125 48.484375 27.875 48.484375  Q 21.1875 48.484375 17.84375 46.4375  Q 14.5 44.390625 14.5 40.28125  Q 14.5 37.15625 16.890625 35.375  Q 19.28125 33.59375 26.515625 31.984375  L 29.59375 31.296875  Q 39.15625 29.25 43.1875 25.515625  Q 47.21875 21.78125 47.21875 15.09375  Q 47.21875 7.46875 41.1875 3.015625  Q 35.15625 -1.421875 24.609375 -1.421875  Q 20.21875 -1.421875 15.453125 -0.5625  Q 10.6875 0.296875 5.421875 2  L 5.421875 11.28125  Q 10.40625 8.6875 15.234375 7.390625  Q 20.0625 6.109375 24.8125 6.109375  Q 31.15625 6.109375 34.5625 8.28125  Q 37.984375 10.453125 37.984375 14.40625  Q 37.984375 18.0625 35.515625 20.015625  Q 33.0625 21.96875 24.703125 23.78125  L 21.578125 24.515625  Q 13.234375 26.265625 9.515625 29.90625  Q 5.8125 33.546875 5.8125 39.890625  Q 5.8125 47.609375 11.28125 51.796875  Q 16.75 56 26.8125 56  Q 31.78125 56 36.171875 55.265625  Q 40.578125 54.546875 44.28125 53.078125  z " id="DejaVuSans-115"/>
      </defs>
      <g transform="translate(43.891091 629.427748)rotate(-45)scale(0.15 -0.15)">
       <use xlink:href="#DejaVuSans-67"/>
       <use x="69.824219" xlink:href="#DejaVuSans-111"/>
       <use x="131.005859" xlink:href="#DejaVuSans-110"/>
       <use x="194.384766" xlink:href="#DejaVuSans-99"/>
       <use x="249.365234" xlink:href="#DejaVuSans-101"/>
       <use x="310.888672" xlink:href="#DejaVuSans-110"/>
       <use x="374.267578" xlink:href="#DejaVuSans-116"/>
       <use x="413.476562" xlink:href="#DejaVuSans-114"/>
       <use x="454.589844" xlink:href="#DejaVuSans-97"/>
       <use x="515.869141" xlink:href="#DejaVuSans-116"/>
       <use x="555.078125" xlink:href="#DejaVuSans-105"/>
       <use x="582.861328" xlink:href="#DejaVuSans-111"/>
       <use x="644.042969" xlink:href="#DejaVuSans-110"/>
       <use x="707.421875" xlink:href="#DejaVuSans-115"/>
      </g>
     </g>
    </g>
    <g id="xtick_2">
     <g id="line2d_2">
      <g>
       <use style="stroke:#000000;stroke-width:0.8;" x="184.572327" xlink:href="#m98c8866225" y="533.809591"/>
      </g>
     </g>
     <g id="text_2">
      <!-- Enzyme Activities -->
      <defs>
       <path d="M 9.8125 72.90625  L 55.90625 72.90625  L 55.90625 64.59375  L 19.671875 64.59375  L 19.671875 43.015625  L 54.390625 43.015625  L 54.390625 34.71875  L 19.671875 34.71875  L 19.671875 8.296875  L 56.78125 8.296875  L 56.78125 0  L 9.8125 0  z " id="DejaVuSans-69"/>
       <path d="M 5.515625 54.6875  L 48.1875 54.6875  L 48.1875 46.484375  L 14.40625 7.171875  L 48.1875 7.171875  L 48.1875 0  L 4.296875 0  L 4.296875 8.203125  L 38.09375 47.515625  L 5.515625 47.515625  z " id="DejaVuSans-122"/>
       <path d="M 32.171875 -5.078125  Q 28.375 -14.84375 24.75 -17.8125  Q 21.140625 -20.796875 15.09375 -20.796875  L 7.90625 -20.796875  L 7.90625 -13.28125  L 13.1875 -13.28125  Q 16.890625 -13.28125 18.9375 -11.515625  Q 21 -9.765625 23.484375 -3.21875  L 25.09375 0.875  L 2.984375 54.6875  L 12.5 54.6875  L 29.59375 11.921875  L 46.6875 54.6875  L 56.203125 54.6875  z " id="DejaVuSans-121"/>
       <path d="M 52 44.1875  Q 55.375 50.25 60.0625 53.125  Q 64.75 56 71.09375 56  Q 79.640625 56 84.28125 50.015625  Q 88.921875 44.046875 88.921875 33.015625  L 88.921875 0  L 79.890625 0  L 79.890625 32.71875  Q 79.890625 40.578125 77.09375 44.375  Q 74.3125 48.1875 68.609375 48.1875  Q 61.625 48.1875 57.5625 43.546875  Q 53.515625 38.921875 53.515625 30.90625  L 53.515625 0  L 44.484375 0  L 44.484375 32.71875  Q 44.484375 40.625 41.703125 44.40625  Q 38.921875 48.1875 33.109375 48.1875  Q 26.21875 48.1875 22.15625 43.53125  Q 18.109375 38.875 18.109375 30.90625  L 18.109375 0  L 9.078125 0  L 9.078125 54.6875  L 18.109375 54.6875  L 18.109375 46.1875  Q 21.1875 51.21875 25.484375 53.609375  Q 29.78125 56 35.6875 56  Q 41.65625 56 45.828125 52.96875  Q 50 49.953125 52 44.1875  z " id="DejaVuSans-109"/>
       <path id="DejaVuSans-32"/>
       <path d="M 34.1875 63.1875  L 20.796875 26.90625  L 47.609375 26.90625  z M 28.609375 72.90625  L 39.796875 72.90625  L 67.578125 0  L 57.328125 0  L 50.6875 18.703125  L 17.828125 18.703125  L 11.1875 0  L 0.78125 0  z " id="DejaVuSans-65"/>
       <path d="M 2.984375 54.6875  L 12.5 54.6875  L 29.59375 8.796875  L 46.6875 54.6875  L 56.203125 54.6875  L 35.6875 0  L 23.484375 0  z " id="DejaVuSans-118"/>
      </defs>
      <g transform="translate(88.481487 642.753949)rotate(-45)scale(0.15 -0.15)">
       <use xlink:href="#DejaVuSans-69"/>
       <use x="63.183594" xlink:href="#DejaVuSans-110"/>
       <use x="126.5625" xlink:href="#DejaVuSans-122"/>
       <use x="179.052734" xlink:href="#DejaVuSans-121"/>
       <use x="238.232422" xlink:href="#DejaVuSans-109"/>
       <use x="335.644531" xlink:href="#DejaVuSans-101"/>
       <use x="397.167969" xlink:href="#DejaVuSans-32"/>
       <use x="428.955078" xlink:href="#DejaVuSans-65"/>
       <use x="495.613281" xlink:href="#DejaVuSans-99"/>
       <use x="550.59375" xlink:href="#DejaVuSans-116"/>
       <use x="589.802734" xlink:href="#DejaVuSans-105"/>
       <use x="617.585938" xlink:href="#DejaVuSans-118"/>
       <use x="676.765625" xlink:href="#DejaVuSans-105"/>
       <use x="704.548828" xlink:href="#DejaVuSans-116"/>
       <use x="743.757812" xlink:href="#DejaVuSans-105"/>
       <use x="771.541016" xlink:href="#DejaVuSans-101"/>
       <use x="833.064453" xlink:href="#DejaVuSans-115"/>
      </g>
     </g>
    </g>
    <g id="xtick_3">
     <g id="line2d_3">
      <g>
       <use style="stroke:#000000;stroke-width:0.8;" x="242.488924" xlink:href="#m98c8866225" y="533.809591"/>
      </g>
     </g>
     <g id="text_3">
      <!-- Lipid Abundance -->
      <defs>
       <path d="M 9.8125 72.90625  L 19.671875 72.90625  L 19.671875 8.296875  L 55.171875 8.296875  L 55.171875 0  L 9.8125 0  z " id="DejaVuSans-76"/>
       <path d="M 18.109375 8.203125  L 18.109375 -20.796875  L 9.078125 -20.796875  L 9.078125 54.6875  L 18.109375 54.6875  L 18.109375 46.390625  Q 20.953125 51.265625 25.265625 53.625  Q 29.59375 56 35.59375 56  Q 45.5625 56 51.78125 48.09375  Q 58.015625 40.1875 58.015625 27.296875  Q 58.015625 14.40625 51.78125 6.484375  Q 45.5625 -1.421875 35.59375 -1.421875  Q 29.59375 -1.421875 25.265625 0.953125  Q 20.953125 3.328125 18.109375 8.203125  z M 48.6875 27.296875  Q 48.6875 37.203125 44.609375 42.84375  Q 40.53125 48.484375 33.40625 48.484375  Q 26.265625 48.484375 22.1875 42.84375  Q 18.109375 37.203125 18.109375 27.296875  Q 18.109375 17.390625 22.1875 11.75  Q 26.265625 6.109375 33.40625 6.109375  Q 40.53125 6.109375 44.609375 11.75  Q 48.6875 17.390625 48.6875 27.296875  z " id="DejaVuSans-112"/>
       <path d="M 45.40625 46.390625  L 45.40625 75.984375  L 54.390625 75.984375  L 54.390625 0  L 45.40625 0  L 45.40625 8.203125  Q 42.578125 3.328125 38.25 0.953125  Q 33.9375 -1.421875 27.875 -1.421875  Q 17.96875 -1.421875 11.734375 6.484375  Q 5.515625 14.40625 5.515625 27.296875  Q 5.515625 40.1875 11.734375 48.09375  Q 17.96875 56 27.875 56  Q 33.9375 56 38.25 53.625  Q 42.578125 51.265625 45.40625 46.390625  z M 14.796875 27.296875  Q 14.796875 17.390625 18.875 11.75  Q 22.953125 6.109375 30.078125 6.109375  Q 37.203125 6.109375 41.296875 11.75  Q 45.40625 17.390625 45.40625 27.296875  Q 45.40625 37.203125 41.296875 42.84375  Q 37.203125 48.484375 30.078125 48.484375  Q 22.953125 48.484375 18.875 42.84375  Q 14.796875 37.203125 14.796875 27.296875  z " id="DejaVuSans-100"/>
       <path d="M 48.6875 27.296875  Q 48.6875 37.203125 44.609375 42.84375  Q 40.53125 48.484375 33.40625 48.484375  Q 26.265625 48.484375 22.1875 42.84375  Q 18.109375 37.203125 18.109375 27.296875  Q 18.109375 17.390625 22.1875 11.75  Q 26.265625 6.109375 33.40625 6.109375  Q 40.53125 6.109375 44.609375 11.75  Q 48.6875 17.390625 48.6875 27.296875  z M 18.109375 46.390625  Q 20.953125 51.265625 25.265625 53.625  Q 29.59375 56 35.59375 56  Q 45.5625 56 51.78125 48.09375  Q 58.015625 40.1875 58.015625 27.296875  Q 58.015625 14.40625 51.78125 6.484375  Q 45.5625 -1.421875 35.59375 -1.421875  Q 29.59375 -1.421875 25.265625 0.953125  Q 20.953125 3.328125 18.109375 8.203125  L 18.109375 0  L 9.078125 0  L 9.078125 75.984375  L 18.109375 75.984375  z " id="DejaVuSans-98"/>
       <path d="M 8.5 21.578125  L 8.5 54.6875  L 17.484375 54.6875  L 17.484375 21.921875  Q 17.484375 14.15625 20.5 10.265625  Q 23.53125 6.390625 29.59375 6.390625  Q 36.859375 6.390625 41.078125 11.03125  Q 45.3125 15.671875 45.3125 23.6875  L 45.3125 54.6875  L 54.296875 54.6875  L 54.296875 0  L 45.3125 0  L 45.3125 8.40625  Q 42.046875 3.421875 37.71875 1  Q 33.40625 -1.421875 27.6875 -1.421875  Q 18.265625 -1.421875 13.375 4.4375  Q 8.5 10.296875 8.5 21.578125  z M 31.109375 56  z " id="DejaVuSans-117"/>
      </defs>
      <g transform="translate(151.895287 637.256746)rotate(-45)scale(0.15 -0.15)">
       <use xlink:href="#DejaVuSans-76"/>
       <use x="55.712891" xlink:href="#DejaVuSans-105"/>
       <use x="83.496094" xlink:href="#DejaVuSans-112"/>
       <use x="146.972656" xlink:href="#DejaVuSans-105"/>
       <use x="174.755859" xlink:href="#DejaVuSans-100"/>
       <use x="238.232422" xlink:href="#DejaVuSans-32"/>
       <use x="270.019531" xlink:href="#DejaVuSans-65"/>
       <use x="338.427734" xlink:href="#DejaVuSans-98"/>
       <use x="401.904297" xlink:href="#DejaVuSans-117"/>
       <use x="465.283203" xlink:href="#DejaVuSans-110"/>
       <use x="528.662109" xlink:href="#DejaVuSans-100"/>
       <use x="592.138672" xlink:href="#DejaVuSans-97"/>
       <use x="653.417969" xlink:href="#DejaVuSans-110"/>
       <use x="716.796875" xlink:href="#DejaVuSans-99"/>
       <use x="771.777344" xlink:href="#DejaVuSans-101"/>
      </g>
     </g>
    </g>
    <g id="xtick_4">
     <g id="line2d_4">
      <g>
       <use style="stroke:#000000;stroke-width:0.8;" x="300.405521" xlink:href="#m98c8866225" y="533.809591"/>
      </g>
     </g>
     <g id="text_4">
      <!-- Secretion -->
      <defs>
       <path d="M 53.515625 70.515625  L 53.515625 60.890625  Q 47.90625 63.578125 42.921875 64.890625  Q 37.9375 66.21875 33.296875 66.21875  Q 25.25 66.21875 20.875 63.09375  Q 16.5 59.96875 16.5 54.203125  Q 16.5 49.359375 19.40625 46.890625  Q 22.3125 44.4375 30.421875 42.921875  L 36.375 41.703125  Q 47.40625 39.59375 52.65625 34.296875  Q 57.90625 29 57.90625 20.125  Q 57.90625 9.515625 50.796875 4.046875  Q 43.703125 -1.421875 29.984375 -1.421875  Q 24.8125 -1.421875 18.96875 -0.25  Q 13.140625 0.921875 6.890625 3.21875  L 6.890625 13.375  Q 12.890625 10.015625 18.65625 8.296875  Q 24.421875 6.59375 29.984375 6.59375  Q 38.421875 6.59375 43.015625 9.90625  Q 47.609375 13.234375 47.609375 19.390625  Q 47.609375 24.75 44.3125 27.78125  Q 41.015625 30.8125 33.5 32.328125  L 27.484375 33.5  Q 16.453125 35.6875 11.515625 40.375  Q 6.59375 45.0625 6.59375 53.421875  Q 6.59375 63.09375 13.40625 68.65625  Q 20.21875 74.21875 32.171875 74.21875  Q 37.3125 74.21875 42.625 73.28125  Q 47.953125 72.359375 53.515625 70.515625  z " id="DejaVuSans-83"/>
      </defs>
      <g transform="translate(248.143149 598.925482)rotate(-45)scale(0.15 -0.15)">
       <use xlink:href="#DejaVuSans-83"/>
       <use x="63.476562" xlink:href="#DejaVuSans-101"/>
       <use x="125" xlink:href="#DejaVuSans-99"/>
       <use x="179.980469" xlink:href="#DejaVuSans-114"/>
       <use x="218.84375" xlink:href="#DejaVuSans-101"/>
       <use x="280.367188" xlink:href="#DejaVuSans-116"/>
       <use x="319.576172" xlink:href="#DejaVuSans-105"/>
       <use x="347.359375" xlink:href="#DejaVuSans-111"/>
       <use x="408.541016" xlink:href="#DejaVuSans-110"/>
      </g>
     </g>
    </g>
    <g id="xtick_5">
     <g id="line2d_5">
      <g>
       <use style="stroke:#000000;stroke-width:0.8;" x="358.322118" xlink:href="#m98c8866225" y="533.809591"/>
      </g>
     </g>
     <g id="text_5">
      <!-- Uptake -->
      <defs>
       <path d="M 8.6875 72.90625  L 18.609375 72.90625  L 18.609375 28.609375  Q 18.609375 16.890625 22.84375 11.734375  Q 27.09375 6.59375 36.625 6.59375  Q 46.09375 6.59375 50.34375 11.734375  Q 54.59375 16.890625 54.59375 28.609375  L 54.59375 72.90625  L 64.5 72.90625  L 64.5 27.390625  Q 64.5 13.140625 57.4375 5.859375  Q 50.390625 -1.421875 36.625 -1.421875  Q 22.796875 -1.421875 15.734375 5.859375  Q 8.6875 13.140625 8.6875 27.390625  z " id="DejaVuSans-85"/>
       <path d="M 9.078125 75.984375  L 18.109375 75.984375  L 18.109375 31.109375  L 44.921875 54.6875  L 56.390625 54.6875  L 27.390625 29.109375  L 57.625 0  L 45.90625 0  L 18.109375 26.703125  L 18.109375 0  L 9.078125 0  z " id="DejaVuSans-107"/>
      </defs>
      <g transform="translate(318.678287 586.306941)rotate(-45)scale(0.15 -0.15)">
       <use xlink:href="#DejaVuSans-85"/>
       <use x="73.193359" xlink:href="#DejaVuSans-112"/>
       <use x="136.669922" xlink:href="#DejaVuSans-116"/>
       <use x="175.878906" xlink:href="#DejaVuSans-97"/>
       <use x="237.158203" xlink:href="#DejaVuSans-107"/>
       <use x="291.443359" xlink:href="#DejaVuSans-101"/>
      </g>
     </g>
    </g>
    <g id="xtick_6">
     <g id="line2d_6">
      <g>
       <use style="stroke:#000000;stroke-width:0.8;" x="416.238716" xlink:href="#m98c8866225" y="533.809591"/>
      </g>
     </g>
     <g id="text_6">
      <!-- Protein Abundance -->
      <defs>
       <path d="M 19.671875 64.796875  L 19.671875 37.40625  L 32.078125 37.40625  Q 38.96875 37.40625 42.71875 40.96875  Q 46.484375 44.53125 46.484375 51.125  Q 46.484375 57.671875 42.71875 61.234375  Q 38.96875 64.796875 32.078125 64.796875  z M 9.8125 72.90625  L 32.078125 72.90625  Q 44.34375 72.90625 50.609375 67.359375  Q 56.890625 61.8125 56.890625 51.125  Q 56.890625 40.328125 50.609375 34.8125  Q 44.34375 29.296875 32.078125 29.296875  L 19.671875 29.296875  L 19.671875 0  L 9.8125 0  z " id="DejaVuSans-80"/>
      </defs>
      <g transform="translate(313.740826 649.161)rotate(-45)scale(0.15 -0.15)">
       <use xlink:href="#DejaVuSans-80"/>
       <use x="58.552734" xlink:href="#DejaVuSans-114"/>
       <use x="97.416016" xlink:href="#DejaVuSans-111"/>
       <use x="158.597656" xlink:href="#DejaVuSans-116"/>
       <use x="197.806641" xlink:href="#DejaVuSans-101"/>
       <use x="259.330078" xlink:href="#DejaVuSans-105"/>
       <use x="287.113281" xlink:href="#DejaVuSans-110"/>
       <use x="350.492188" xlink:href="#DejaVuSans-32"/>
       <use x="382.279297" xlink:href="#DejaVuSans-65"/>
       <use x="450.6875" xlink:href="#DejaVuSans-98"/>
       <use x="514.164062" xlink:href="#DejaVuSans-117"/>
       <use x="577.542969" xlink:href="#DejaVuSans-110"/>
       <use x="640.921875" xlink:href="#DejaVuSans-100"/>
       <use x="704.398438" xlink:href="#DejaVuSans-97"/>
       <use x="765.677734" xlink:href="#DejaVuSans-110"/>
       <use x="829.056641" xlink:href="#DejaVuSans-99"/>
       <use x="884.037109" xlink:href="#DejaVuSans-101"/>
      </g>
     </g>
    </g>
    <g id="xtick_7">
     <g id="line2d_7">
      <g>
       <use style="stroke:#000000;stroke-width:0.8;" x="474.155313" xlink:href="#m98c8866225" y="533.809591"/>
      </g>
     </g>
     <g id="text_7">
      <!-- Protein Degradation -->
      <defs>
       <path d="M 19.671875 64.796875  L 19.671875 8.109375  L 31.59375 8.109375  Q 46.6875 8.109375 53.6875 14.9375  Q 60.6875 21.78125 60.6875 36.53125  Q 60.6875 51.171875 53.6875 57.984375  Q 46.6875 64.796875 31.59375 64.796875  z M 9.8125 72.90625  L 30.078125 72.90625  Q 51.265625 72.90625 61.171875 64.09375  Q 71.09375 55.28125 71.09375 36.53125  Q 71.09375 17.671875 61.125 8.828125  Q 51.171875 0 30.078125 0  L 9.8125 0  z " id="DejaVuSans-68"/>
       <path d="M 45.40625 27.984375  Q 45.40625 37.75 41.375 43.109375  Q 37.359375 48.484375 30.078125 48.484375  Q 22.859375 48.484375 18.828125 43.109375  Q 14.796875 37.75 14.796875 27.984375  Q 14.796875 18.265625 18.828125 12.890625  Q 22.859375 7.515625 30.078125 7.515625  Q 37.359375 7.515625 41.375 12.890625  Q 45.40625 18.265625 45.40625 27.984375  z M 54.390625 6.78125  Q 54.390625 -7.171875 48.1875 -13.984375  Q 42 -20.796875 29.203125 -20.796875  Q 24.46875 -20.796875 20.265625 -20.09375  Q 16.0625 -19.390625 12.109375 -17.921875  L 12.109375 -9.1875  Q 16.0625 -11.328125 19.921875 -12.34375  Q 23.78125 -13.375 27.78125 -13.375  Q 36.625 -13.375 41.015625 -8.765625  Q 45.40625 -4.15625 45.40625 5.171875  L 45.40625 9.625  Q 42.625 4.78125 38.28125 2.390625  Q 33.9375 0 27.875 0  Q 17.828125 0 11.671875 7.65625  Q 5.515625 15.328125 5.515625 27.984375  Q 5.515625 40.671875 11.671875 48.328125  Q 17.828125 56 27.875 56  Q 33.9375 56 38.28125 53.609375  Q 42.625 51.21875 45.40625 46.390625  L 45.40625 54.6875  L 54.390625 54.6875  z " id="DejaVuSans-103"/>
      </defs>
      <g transform="translate(365.566913 655.251509)rotate(-45)scale(0.15 -0.15)">
       <use xlink:href="#DejaVuSans-80"/>
       <use x="58.552734" xlink:href="#DejaVuSans-114"/>
       <use x="97.416016" xlink:href="#DejaVuSans-111"/>
       <use x="158.597656" xlink:href="#DejaVuSans-116"/>
       <use x="197.806641" xlink:href="#DejaVuSans-101"/>
       <use x="259.330078" xlink:href="#DejaVuSans-105"/>
       <use x="287.113281" xlink:href="#DejaVuSans-110"/>
       <use x="350.492188" xlink:href="#DejaVuSans-32"/>
       <use x="382.279297" xlink:href="#DejaVuSans-68"/>
       <use x="459.28125" xlink:href="#DejaVuSans-101"/>
       <use x="520.804688" xlink:href="#DejaVuSans-103"/>
       <use x="584.28125" xlink:href="#DejaVuSans-114"/>
       <use x="625.394531" xlink:href="#DejaVuSans-97"/>
       <use x="686.673828" xlink:href="#DejaVuSans-100"/>
       <use x="750.150391" xlink:href="#DejaVuSans-97"/>
       <use x="811.429688" xlink:href="#DejaVuSans-116"/>
       <use x="850.638672" xlink:href="#DejaVuSans-105"/>
       <use x="878.421875" xlink:href="#DejaVuSans-111"/>
       <use x="939.603516" xlink:href="#DejaVuSans-110"/>
      </g>
     </g>
    </g>
    <g id="xtick_8">
     <g id="line2d_8">
      <g>
       <use style="stroke:#000000;stroke-width:0.8;" x="532.07191" xlink:href="#m98c8866225" y="533.809591"/>
      </g>
     </g>
     <g id="text_8">
      <!-- Protein Synthesis -->
      <defs>
       <path d="M 54.890625 33.015625  L 54.890625 0  L 45.90625 0  L 45.90625 32.71875  Q 45.90625 40.484375 42.875 44.328125  Q 39.84375 48.1875 33.796875 48.1875  Q 26.515625 48.1875 22.3125 43.546875  Q 18.109375 38.921875 18.109375 30.90625  L 18.109375 0  L 9.078125 0  L 9.078125 75.984375  L 18.109375 75.984375  L 18.109375 46.1875  Q 21.34375 51.125 25.703125 53.5625  Q 30.078125 56 35.796875 56  Q 45.21875 56 50.046875 50.171875  Q 54.890625 44.34375 54.890625 33.015625  z " id="DejaVuSans-104"/>
      </defs>
      <g transform="translate(438.183597 640.551422)rotate(-45)scale(0.15 -0.15)">
       <use xlink:href="#DejaVuSans-80"/>
       <use x="58.552734" xlink:href="#DejaVuSans-114"/>
       <use x="97.416016" xlink:href="#DejaVuSans-111"/>
       <use x="158.597656" xlink:href="#DejaVuSans-116"/>
       <use x="197.806641" xlink:href="#DejaVuSans-101"/>
       <use x="259.330078" xlink:href="#DejaVuSans-105"/>
       <use x="287.113281" xlink:href="#DejaVuSans-110"/>
       <use x="350.492188" xlink:href="#DejaVuSans-32"/>
       <use x="382.279297" xlink:href="#DejaVuSans-83"/>
       <use x="445.755859" xlink:href="#DejaVuSans-121"/>
       <use x="504.935547" xlink:href="#DejaVuSans-110"/>
       <use x="568.314453" xlink:href="#DejaVuSans-116"/>
       <use x="607.523438" xlink:href="#DejaVuSans-104"/>
       <use x="670.902344" xlink:href="#DejaVuSans-101"/>
       <use x="732.425781" xlink:href="#DejaVuSans-115"/>
       <use x="784.525391" xlink:href="#DejaVuSans-105"/>
       <use x="812.308594" xlink:href="#DejaVuSans-115"/>
      </g>
     </g>
    </g>
    <g id="xtick_9">
     <g id="line2d_9">
      <g>
       <use style="stroke:#000000;stroke-width:0.8;" x="589.988507" xlink:href="#m98c8866225" y="533.809591"/>
      </g>
     </g>
     <g id="text_9">
      <!-- Translation Efficiencies -->
      <defs>
       <path d="M -0.296875 72.90625  L 61.375 72.90625  L 61.375 64.59375  L 35.5 64.59375  L 35.5 0  L 25.59375 0  L 25.59375 64.59375  L -0.296875 64.59375  z " id="DejaVuSans-84"/>
       <path d="M 9.421875 75.984375  L 18.40625 75.984375  L 18.40625 0  L 9.421875 0  z " id="DejaVuSans-108"/>
       <path d="M 37.109375 75.984375  L 37.109375 68.5  L 28.515625 68.5  Q 23.6875 68.5 21.796875 66.546875  Q 19.921875 64.59375 19.921875 59.515625  L 19.921875 54.6875  L 34.71875 54.6875  L 34.71875 47.703125  L 19.921875 47.703125  L 19.921875 0  L 10.890625 0  L 10.890625 47.703125  L 2.296875 47.703125  L 2.296875 54.6875  L 10.890625 54.6875  L 10.890625 58.5  Q 10.890625 67.625 15.140625 71.796875  Q 19.390625 75.984375 28.609375 75.984375  z " id="DejaVuSans-102"/>
      </defs>
      <g transform="translate(466.653616 669.998)rotate(-45)scale(0.15 -0.15)">
       <use xlink:href="#DejaVuSans-84"/>
       <use x="46.333984" xlink:href="#DejaVuSans-114"/>
       <use x="87.447266" xlink:href="#DejaVuSans-97"/>
       <use x="148.726562" xlink:href="#DejaVuSans-110"/>
       <use x="212.105469" xlink:href="#DejaVuSans-115"/>
       <use x="264.205078" xlink:href="#DejaVuSans-108"/>
       <use x="291.988281" xlink:href="#DejaVuSans-97"/>
       <use x="353.267578" xlink:href="#DejaVuSans-116"/>
       <use x="392.476562" xlink:href="#DejaVuSans-105"/>
       <use x="420.259766" xlink:href="#DejaVuSans-111"/>
       <use x="481.441406" xlink:href="#DejaVuSans-110"/>
       <use x="544.820312" xlink:href="#DejaVuSans-32"/>
       <use x="576.607422" xlink:href="#DejaVuSans-69"/>
       <use x="639.791016" xlink:href="#DejaVuSans-102"/>
       <use x="674.996094" xlink:href="#DejaVuSans-102"/>
       <use x="710.201172" xlink:href="#DejaVuSans-105"/>
       <use x="737.984375" xlink:href="#DejaVuSans-99"/>
       <use x="792.964844" xlink:href="#DejaVuSans-105"/>
       <use x="820.748047" xlink:href="#DejaVuSans-101"/>
       <use x="882.271484" xlink:href="#DejaVuSans-110"/>
       <use x="945.650391" xlink:href="#DejaVuSans-99"/>
       <use x="1000.630859" xlink:href="#DejaVuSans-105"/>
       <use x="1028.414062" xlink:href="#DejaVuSans-101"/>
       <use x="1089.9375" xlink:href="#DejaVuSans-115"/>
      </g>
     </g>
    </g>
    <g id="xtick_10">
     <g id="line2d_10">
      <g>
       <use style="stroke:#000000;stroke-width:0.8;" x="647.905104" xlink:href="#m98c8866225" y="533.809591"/>
      </g>
     </g>
     <g id="text_10">
      <!-- mRNA Abundance -->
      <defs>
       <path d="M 44.390625 34.1875  Q 47.5625 33.109375 50.5625 29.59375  Q 53.5625 26.078125 56.59375 19.921875  L 66.609375 0  L 56 0  L 46.6875 18.703125  Q 43.0625 26.03125 39.671875 28.421875  Q 36.28125 30.8125 30.421875 30.8125  L 19.671875 30.8125  L 19.671875 0  L 9.8125 0  L 9.8125 72.90625  L 32.078125 72.90625  Q 44.578125 72.90625 50.734375 67.671875  Q 56.890625 62.453125 56.890625 51.90625  Q 56.890625 45.015625 53.6875 40.46875  Q 50.484375 35.9375 44.390625 34.1875  z M 19.671875 64.796875  L 19.671875 38.921875  L 32.078125 38.921875  Q 39.203125 38.921875 42.84375 42.21875  Q 46.484375 45.515625 46.484375 51.90625  Q 46.484375 58.296875 42.84375 61.546875  Q 39.203125 64.796875 32.078125 64.796875  z " id="DejaVuSans-82"/>
       <path d="M 9.8125 72.90625  L 23.09375 72.90625  L 55.421875 11.921875  L 55.421875 72.90625  L 64.984375 72.90625  L 64.984375 0  L 51.703125 0  L 19.390625 60.984375  L 19.390625 0  L 9.8125 0  z " id="DejaVuSans-78"/>
      </defs>
      <g transform="translate(549.68963 644.878584)rotate(-45)scale(0.15 -0.15)">
       <use xlink:href="#DejaVuSans-109"/>
       <use x="97.412109" xlink:href="#DejaVuSans-82"/>
       <use x="166.894531" xlink:href="#DejaVuSans-78"/>
       <use x="241.699219" xlink:href="#DejaVuSans-65"/>
       <use x="310.107422" xlink:href="#DejaVuSans-32"/>
       <use x="341.894531" xlink:href="#DejaVuSans-65"/>
       <use x="410.302734" xlink:href="#DejaVuSans-98"/>
       <use x="473.779297" xlink:href="#DejaVuSans-117"/>
       <use x="537.158203" xlink:href="#DejaVuSans-110"/>
       <use x="600.537109" xlink:href="#DejaVuSans-100"/>
       <use x="664.013672" xlink:href="#DejaVuSans-97"/>
       <use x="725.292969" xlink:href="#DejaVuSans-110"/>
       <use x="788.671875" xlink:href="#DejaVuSans-99"/>
       <use x="843.652344" xlink:href="#DejaVuSans-101"/>
      </g>
     </g>
    </g>
    <g id="xtick_11">
     <g id="line2d_11">
      <g>
       <use style="stroke:#000000;stroke-width:0.8;" x="705.821701" xlink:href="#m98c8866225" y="533.809591"/>
      </g>
     </g>
     <g id="text_11">
      <!-- mRNA Synthesis -->
      <g transform="translate(616.215804 636.269007)rotate(-45)scale(0.15 -0.15)">
       <use xlink:href="#DejaVuSans-109"/>
       <use x="97.412109" xlink:href="#DejaVuSans-82"/>
       <use x="166.894531" xlink:href="#DejaVuSans-78"/>
       <use x="241.699219" xlink:href="#DejaVuSans-65"/>
       <use x="310.107422" xlink:href="#DejaVuSans-32"/>
       <use x="341.894531" xlink:href="#DejaVuSans-83"/>
       <use x="405.371094" xlink:href="#DejaVuSans-121"/>
       <use x="464.550781" xlink:href="#DejaVuSans-110"/>
       <use x="527.929688" xlink:href="#DejaVuSans-116"/>
       <use x="567.138672" xlink:href="#DejaVuSans-104"/>
       <use x="630.517578" xlink:href="#DejaVuSans-101"/>
       <use x="692.041016" xlink:href="#DejaVuSans-115"/>
       <use x="744.140625" xlink:href="#DejaVuSans-105"/>
       <use x="771.923828" xlink:href="#DejaVuSans-115"/>
      </g>
     </g>
    </g>
    <g id="xtick_12">
     <g id="line2d_12">
      <g>
       <use style="stroke:#000000;stroke-width:0.8;" x="763.738299" xlink:href="#m98c8866225" y="533.809591"/>
      </g>
     </g>
     <g id="text_12">
      <!-- Cell Cycle Phases -->
      <g transform="translate(668.781039 641.620369)rotate(-45)scale(0.15 -0.15)">
       <use xlink:href="#DejaVuSans-67"/>
       <use x="69.824219" xlink:href="#DejaVuSans-101"/>
       <use x="131.347656" xlink:href="#DejaVuSans-108"/>
       <use x="159.130859" xlink:href="#DejaVuSans-108"/>
       <use x="186.914062" xlink:href="#DejaVuSans-32"/>
       <use x="218.701172" xlink:href="#DejaVuSans-67"/>
       <use x="288.525391" xlink:href="#DejaVuSans-121"/>
       <use x="347.705078" xlink:href="#DejaVuSans-99"/>
       <use x="402.685547" xlink:href="#DejaVuSans-108"/>
       <use x="430.46875" xlink:href="#DejaVuSans-101"/>
       <use x="491.992188" xlink:href="#DejaVuSans-32"/>
       <use x="523.779297" xlink:href="#DejaVuSans-80"/>
       <use x="584.082031" xlink:href="#DejaVuSans-104"/>
       <use x="647.460938" xlink:href="#DejaVuSans-97"/>
       <use x="708.740234" xlink:href="#DejaVuSans-115"/>
       <use x="760.839844" xlink:href="#DejaVuSans-101"/>
       <use x="822.363281" xlink:href="#DejaVuSans-115"/>
      </g>
     </g>
    </g>
    <g id="xtick_13">
     <g id="line2d_13">
      <g>
       <use style="stroke:#000000;stroke-width:0.8;" x="821.654896" xlink:href="#m98c8866225" y="533.809591"/>
      </g>
     </g>
     <g id="text_13">
      <!-- Cell Density -->
      <g transform="translate(755.928768 612.389237)rotate(-45)scale(0.15 -0.15)">
       <use xlink:href="#DejaVuSans-67"/>
       <use x="69.824219" xlink:href="#DejaVuSans-101"/>
       <use x="131.347656" xlink:href="#DejaVuSans-108"/>
       <use x="159.130859" xlink:href="#DejaVuSans-108"/>
       <use x="186.914062" xlink:href="#DejaVuSans-32"/>
       <use x="218.701172" xlink:href="#DejaVuSans-68"/>
       <use x="295.703125" xlink:href="#DejaVuSans-101"/>
       <use x="357.226562" xlink:href="#DejaVuSans-110"/>
       <use x="420.605469" xlink:href="#DejaVuSans-115"/>
       <use x="472.705078" xlink:href="#DejaVuSans-105"/>
       <use x="500.488281" xlink:href="#DejaVuSans-116"/>
       <use x="539.697266" xlink:href="#DejaVuSans-121"/>
      </g>
     </g>
    </g>
    <g id="xtick_14">
     <g id="line2d_14">
      <g>
       <use style="stroke:#000000;stroke-width:0.8;" x="879.571493" xlink:href="#m98c8866225" y="533.809591"/>
      </g>
     </g>
     <g id="text_14">
      <!-- Cell Number -->
      <g transform="translate(811.559974 614.674628)rotate(-45)scale(0.15 -0.15)">
       <use xlink:href="#DejaVuSans-67"/>
       <use x="69.824219" xlink:href="#DejaVuSans-101"/>
       <use x="131.347656" xlink:href="#DejaVuSans-108"/>
       <use x="159.130859" xlink:href="#DejaVuSans-108"/>
       <use x="186.914062" xlink:href="#DejaVuSans-32"/>
       <use x="218.701172" xlink:href="#DejaVuSans-78"/>
       <use x="293.505859" xlink:href="#DejaVuSans-117"/>
       <use x="356.884766" xlink:href="#DejaVuSans-109"/>
       <use x="454.296875" xlink:href="#DejaVuSans-98"/>
       <use x="517.773438" xlink:href="#DejaVuSans-101"/>
       <use x="579.296875" xlink:href="#DejaVuSans-114"/>
      </g>
     </g>
    </g>
    <g id="xtick_15">
     <g id="line2d_15">
      <g>
       <use style="stroke:#000000;stroke-width:0.8;" x="937.48809" xlink:href="#m98c8866225" y="533.809591"/>
      </g>
     </g>
     <g id="text_15">
      <!-- Cell Size -->
      <g transform="translate(890.311914 593.839285)rotate(-45)scale(0.15 -0.15)">
       <use xlink:href="#DejaVuSans-67"/>
       <use x="69.824219" xlink:href="#DejaVuSans-101"/>
       <use x="131.347656" xlink:href="#DejaVuSans-108"/>
       <use x="159.130859" xlink:href="#DejaVuSans-108"/>
       <use x="186.914062" xlink:href="#DejaVuSans-32"/>
       <use x="218.701172" xlink:href="#DejaVuSans-83"/>
       <use x="282.177734" xlink:href="#DejaVuSans-105"/>
       <use x="309.960938" xlink:href="#DejaVuSans-122"/>
       <use x="362.451172" xlink:href="#DejaVuSans-101"/>
      </g>
     </g>
    </g>
    <g id="xtick_16">
     <g id="line2d_16">
      <g>
       <use style="stroke:#000000;stroke-width:0.8;" x="995.404687" xlink:href="#m98c8866225" y="533.809591"/>
      </g>
     </g>
     <g id="text_16">
      <!-- Dry Weight -->
      <defs>
       <path d="M 3.328125 72.90625  L 13.28125 72.90625  L 28.609375 11.28125  L 43.890625 72.90625  L 54.984375 72.90625  L 70.3125 11.28125  L 85.59375 72.90625  L 95.609375 72.90625  L 77.296875 0  L 64.890625 0  L 49.515625 63.28125  L 33.984375 0  L 21.578125 0  z " id="DejaVuSans-87"/>
      </defs>
      <g transform="translate(934.072013 607.995784)rotate(-45)scale(0.15 -0.15)">
       <use xlink:href="#DejaVuSans-68"/>
       <use x="77.001953" xlink:href="#DejaVuSans-114"/>
       <use x="118.115234" xlink:href="#DejaVuSans-121"/>
       <use x="177.294922" xlink:href="#DejaVuSans-32"/>
       <use x="209.082031" xlink:href="#DejaVuSans-87"/>
       <use x="302.083984" xlink:href="#DejaVuSans-101"/>
       <use x="363.607422" xlink:href="#DejaVuSans-105"/>
       <use x="391.390625" xlink:href="#DejaVuSans-103"/>
       <use x="454.867188" xlink:href="#DejaVuSans-104"/>
       <use x="518.246094" xlink:href="#DejaVuSans-116"/>
      </g>
     </g>
    </g>
    <g id="xtick_17">
     <g id="line2d_17">
      <g>
       <use style="stroke:#000000;stroke-width:0.8;" x="1053.321284" xlink:href="#m98c8866225" y="533.809591"/>
      </g>
     </g>
     <g id="text_17">
      <!-- Dry Weight Composition -->
      <g transform="translate(922.377814 677.60658)rotate(-45)scale(0.15 -0.15)">
       <use xlink:href="#DejaVuSans-68"/>
       <use x="77.001953" xlink:href="#DejaVuSans-114"/>
       <use x="118.115234" xlink:href="#DejaVuSans-121"/>
       <use x="177.294922" xlink:href="#DejaVuSans-32"/>
       <use x="209.082031" xlink:href="#DejaVuSans-87"/>
       <use x="302.083984" xlink:href="#DejaVuSans-101"/>
       <use x="363.607422" xlink:href="#DejaVuSans-105"/>
       <use x="391.390625" xlink:href="#DejaVuSans-103"/>
       <use x="454.867188" xlink:href="#DejaVuSans-104"/>
       <use x="518.246094" xlink:href="#DejaVuSans-116"/>
       <use x="557.455078" xlink:href="#DejaVuSans-32"/>
       <use x="589.242188" xlink:href="#DejaVuSans-67"/>
       <use x="659.066406" xlink:href="#DejaVuSans-111"/>
       <use x="720.248047" xlink:href="#DejaVuSans-109"/>
       <use x="817.660156" xlink:href="#DejaVuSans-112"/>
       <use x="881.136719" xlink:href="#DejaVuSans-111"/>
       <use x="942.318359" xlink:href="#DejaVuSans-115"/>
       <use x="994.417969" xlink:href="#DejaVuSans-105"/>
       <use x="1022.201172" xlink:href="#DejaVuSans-116"/>
       <use x="1061.410156" xlink:href="#DejaVuSans-105"/>
       <use x="1089.193359" xlink:href="#DejaVuSans-111"/>
       <use x="1150.375" xlink:href="#DejaVuSans-110"/>
      </g>
     </g>
    </g>
    <g id="xtick_18">
     <g id="line2d_18">
      <g>
       <use style="stroke:#000000;stroke-width:0.8;" x="1111.237882" xlink:href="#m98c8866225" y="533.809591"/>
      </g>
     </g>
     <g id="text_18">
      <!-- Growth Rates -->
      <defs>
       <path d="M 59.515625 10.40625  L 59.515625 29.984375  L 43.40625 29.984375  L 43.40625 38.09375  L 69.28125 38.09375  L 69.28125 6.78125  Q 63.578125 2.734375 56.6875 0.65625  Q 49.8125 -1.421875 42 -1.421875  Q 24.90625 -1.421875 15.25 8.5625  Q 5.609375 18.5625 5.609375 36.375  Q 5.609375 54.25 15.25 64.234375  Q 24.90625 74.21875 42 74.21875  Q 49.125 74.21875 55.546875 72.453125  Q 61.96875 70.703125 67.390625 67.28125  L 67.390625 56.78125  Q 61.921875 61.421875 55.765625 63.765625  Q 49.609375 66.109375 42.828125 66.109375  Q 29.4375 66.109375 22.71875 58.640625  Q 16.015625 51.171875 16.015625 36.375  Q 16.015625 21.625 22.71875 14.15625  Q 29.4375 6.6875 42.828125 6.6875  Q 48.046875 6.6875 52.140625 7.59375  Q 56.25 8.5 59.515625 10.40625  z " id="DejaVuSans-71"/>
       <path d="M 4.203125 54.6875  L 13.1875 54.6875  L 24.421875 12.015625  L 35.59375 54.6875  L 46.1875 54.6875  L 57.421875 12.015625  L 68.609375 54.6875  L 77.59375 54.6875  L 63.28125 0  L 52.6875 0  L 40.921875 44.828125  L 29.109375 0  L 18.5 0  z " id="DejaVuSans-119"/>
      </defs>
      <g transform="translate(1037.435821 620.46517)rotate(-45)scale(0.15 -0.15)">
       <use xlink:href="#DejaVuSans-71"/>
       <use x="77.490234" xlink:href="#DejaVuSans-114"/>
       <use x="116.353516" xlink:href="#DejaVuSans-111"/>
       <use x="177.535156" xlink:href="#DejaVuSans-119"/>
       <use x="259.322266" xlink:href="#DejaVuSans-116"/>
       <use x="298.53125" xlink:href="#DejaVuSans-104"/>
       <use x="361.910156" xlink:href="#DejaVuSans-32"/>
       <use x="393.697266" xlink:href="#DejaVuSans-82"/>
       <use x="460.929688" xlink:href="#DejaVuSans-97"/>
       <use x="522.208984" xlink:href="#DejaVuSans-116"/>
       <use x="561.417969" xlink:href="#DejaVuSans-101"/>
       <use x="622.941406" xlink:href="#DejaVuSans-115"/>
      </g>
     </g>
    </g>
    <g id="xtick_19">
     <g id="line2d_19">
      <g>
       <use style="stroke:#000000;stroke-width:0.8;" x="1169.154479" xlink:href="#m98c8866225" y="533.809591"/>
      </g>
     </g>
     <g id="text_19">
      <!-- Macromolecules &amp; Organelles -->
      <defs>
       <path d="M 9.8125 72.90625  L 24.515625 72.90625  L 43.109375 23.296875  L 61.8125 72.90625  L 76.515625 72.90625  L 76.515625 0  L 66.890625 0  L 66.890625 64.015625  L 48.09375 14.015625  L 38.1875 14.015625  L 19.390625 64.015625  L 19.390625 0  L 9.8125 0  z " id="DejaVuSans-77"/>
       <path d="M 24.3125 39.203125  Q 19.875 35.25 17.796875 31.3125  Q 15.71875 27.390625 15.71875 23.09375  Q 15.71875 15.96875 20.890625 11.234375  Q 26.078125 6.5 33.890625 6.5  Q 38.53125 6.5 42.578125 8.03125  Q 46.625 9.578125 50.203125 12.703125  z M 31.203125 44.671875  L 56 19.28125  Q 58.890625 23.640625 60.5 28.59375  Q 62.109375 33.546875 62.40625 39.109375  L 71.484375 39.109375  Q 70.90625 32.671875 68.359375 26.359375  Q 65.828125 20.0625 61.28125 13.921875  L 74.90625 0  L 62.59375 0  L 55.609375 7.171875  Q 50.53125 2.828125 44.96875 0.703125  Q 39.40625 -1.421875 33.015625 -1.421875  Q 21.234375 -1.421875 13.765625 5.296875  Q 6.296875 12.015625 6.296875 22.515625  Q 6.296875 28.765625 9.5625 34.25  Q 12.84375 39.75 19.390625 44.578125  Q 17.046875 47.65625 15.8125 50.703125  Q 14.59375 53.765625 14.59375 56.6875  Q 14.59375 64.59375 20.015625 69.40625  Q 25.4375 74.21875 34.421875 74.21875  Q 38.484375 74.21875 42.5 73.34375  Q 46.53125 72.46875 50.6875 70.703125  L 50.6875 61.8125  Q 46.4375 64.109375 42.578125 65.296875  Q 38.71875 66.5 35.40625 66.5  Q 30.28125 66.5 27.078125 63.78125  Q 23.875 61.078125 23.875 56.78125  Q 23.875 54.296875 25.3125 51.78125  Q 26.765625 49.265625 31.203125 44.671875  z " id="DejaVuSans-38"/>
       <path d="M 39.40625 66.21875  Q 28.65625 66.21875 22.328125 58.203125  Q 16.015625 50.203125 16.015625 36.375  Q 16.015625 22.609375 22.328125 14.59375  Q 28.65625 6.59375 39.40625 6.59375  Q 50.140625 6.59375 56.421875 14.59375  Q 62.703125 22.609375 62.703125 36.375  Q 62.703125 50.203125 56.421875 58.203125  Q 50.140625 66.21875 39.40625 66.21875  z M 39.40625 74.21875  Q 54.734375 74.21875 63.90625 63.9375  Q 73.09375 53.65625 73.09375 36.375  Q 73.09375 19.140625 63.90625 8.859375  Q 54.734375 -1.421875 39.40625 -1.421875  Q 24.03125 -1.421875 14.8125 8.828125  Q 5.609375 19.09375 5.609375 36.375  Q 5.609375 53.65625 14.8125 63.9375  Q 24.03125 74.21875 39.40625 74.21875  z " id="DejaVuSans-79"/>
      </defs>
      <g transform="translate(1009.042854 706.774734)rotate(-45)scale(0.15 -0.15)">
       <use xlink:href="#DejaVuSans-77"/>
       <use x="86.279297" xlink:href="#DejaVuSans-97"/>
       <use x="147.558594" xlink:href="#DejaVuSans-99"/>
       <use x="202.539062" xlink:href="#DejaVuSans-114"/>
       <use x="241.402344" xlink:href="#DejaVuSans-111"/>
       <use x="302.583984" xlink:href="#DejaVuSans-109"/>
       <use x="399.996094" xlink:href="#DejaVuSans-111"/>
       <use x="461.177734" xlink:href="#DejaVuSans-108"/>
       <use x="488.960938" xlink:href="#DejaVuSans-101"/>
       <use x="550.484375" xlink:href="#DejaVuSans-99"/>
       <use x="605.464844" xlink:href="#DejaVuSans-117"/>
       <use x="668.84375" xlink:href="#DejaVuSans-108"/>
       <use x="696.626953" xlink:href="#DejaVuSans-101"/>
       <use x="758.150391" xlink:href="#DejaVuSans-115"/>
       <use x="810.25" xlink:href="#DejaVuSans-32"/>
       <use x="842.037109" xlink:href="#DejaVuSans-38"/>
       <use x="920.015625" xlink:href="#DejaVuSans-32"/>
       <use x="951.802734" xlink:href="#DejaVuSans-79"/>
       <use x="1030.513672" xlink:href="#DejaVuSans-114"/>
       <use x="1069.876953" xlink:href="#DejaVuSans-103"/>
       <use x="1133.353516" xlink:href="#DejaVuSans-97"/>
       <use x="1194.632812" xlink:href="#DejaVuSans-110"/>
       <use x="1258.011719" xlink:href="#DejaVuSans-101"/>
       <use x="1319.535156" xlink:href="#DejaVuSans-108"/>
       <use x="1347.318359" xlink:href="#DejaVuSans-108"/>
       <use x="1375.101562" xlink:href="#DejaVuSans-101"/>
       <use x="1436.625" xlink:href="#DejaVuSans-115"/>
      </g>
     </g>
    </g>
    <g id="xtick_20">
     <g id="line2d_20">
      <g>
       <use style="stroke:#000000;stroke-width:0.8;" x="1227.071076" xlink:href="#m98c8866225" y="533.809591"/>
      </g>
     </g>
     <g id="text_20">
      <!-- Yield -->
      <defs>
       <path d="M -0.203125 72.90625  L 10.40625 72.90625  L 30.609375 42.921875  L 50.6875 72.90625  L 61.28125 72.90625  L 35.5 34.71875  L 35.5 0  L 25.59375 0  L 25.59375 34.71875  z " id="DejaVuSans-89"/>
      </defs>
      <g transform="translate(1199.618208 574.115978)rotate(-45)scale(0.15 -0.15)">
       <use xlink:href="#DejaVuSans-89"/>
       <use x="57.458984" xlink:href="#DejaVuSans-105"/>
       <use x="85.242188" xlink:href="#DejaVuSans-101"/>
       <use x="146.765625" xlink:href="#DejaVuSans-108"/>
       <use x="174.548828" xlink:href="#DejaVuSans-100"/>
      </g>
     </g>
    </g>
    <g id="xtick_21">
     <g id="line2d_21">
      <g>
       <use style="stroke:#000000;stroke-width:0.8;" x="1284.987673" xlink:href="#m98c8866225" y="533.809591"/>
      </g>
     </g>
     <g id="text_21">
      <!-- Bud Index -->
      <defs>
       <path d="M 19.671875 34.8125  L 19.671875 8.109375  L 35.5 8.109375  Q 43.453125 8.109375 47.28125 11.40625  Q 51.125 14.703125 51.125 21.484375  Q 51.125 28.328125 47.28125 31.5625  Q 43.453125 34.8125 35.5 34.8125  z M 19.671875 64.796875  L 19.671875 42.828125  L 34.28125 42.828125  Q 41.5 42.828125 45.03125 45.53125  Q 48.578125 48.25 48.578125 53.8125  Q 48.578125 59.328125 45.03125 62.0625  Q 41.5 64.796875 34.28125 64.796875  z M 9.8125 72.90625  L 35.015625 72.90625  Q 46.296875 72.90625 52.390625 68.21875  Q 58.5 63.53125 58.5 54.890625  Q 58.5 48.1875 55.375 44.234375  Q 52.25 40.28125 46.1875 39.3125  Q 53.46875 37.75 57.5 32.78125  Q 61.53125 27.828125 61.53125 20.40625  Q 61.53125 10.640625 54.890625 5.3125  Q 48.25 0 35.984375 0  L 9.8125 0  z " id="DejaVuSans-66"/>
       <path d="M 9.8125 72.90625  L 19.671875 72.90625  L 19.671875 0  L 9.8125 0  z " id="DejaVuSans-73"/>
       <path d="M 54.890625 54.6875  L 35.109375 28.078125  L 55.90625 0  L 45.3125 0  L 29.390625 21.484375  L 13.484375 0  L 2.875 0  L 24.125 28.609375  L 4.6875 54.6875  L 15.28125 54.6875  L 29.78125 35.203125  L 44.28125 54.6875  z " id="DejaVuSans-120"/>
      </defs>
      <g transform="translate(1229.475371 602.175411)rotate(-45)scale(0.15 -0.15)">
       <use xlink:href="#DejaVuSans-66"/>
       <use x="68.603516" xlink:href="#DejaVuSans-117"/>
       <use x="131.982422" xlink:href="#DejaVuSans-100"/>
       <use x="195.458984" xlink:href="#DejaVuSans-32"/>
       <use x="227.246094" xlink:href="#DejaVuSans-73"/>
       <use x="256.738281" xlink:href="#DejaVuSans-110"/>
       <use x="320.117188" xlink:href="#DejaVuSans-100"/>
       <use x="383.59375" xlink:href="#DejaVuSans-101"/>
       <use x="443.367188" xlink:href="#DejaVuSans-120"/>
      </g>
     </g>
    </g>
    <g id="xtick_22">
     <g id="line2d_22">
      <g>
       <use style="stroke:#000000;stroke-width:0.8;" x="1342.90427" xlink:href="#m98c8866225" y="533.809591"/>
      </g>
     </g>
     <g id="text_22">
      <!--  Cell Volumes -->
      <defs>
       <path d="M 28.609375 0  L 0.78125 72.90625  L 11.078125 72.90625  L 34.1875 11.53125  L 57.328125 72.90625  L 67.578125 72.90625  L 39.796875 0  z " id="DejaVuSans-86"/>
      </defs>
      <g transform="translate(1269.155243 620.412137)rotate(-45)scale(0.15 -0.15)">
       <use xlink:href="#DejaVuSans-32"/>
       <use x="31.787109" xlink:href="#DejaVuSans-67"/>
       <use x="101.611328" xlink:href="#DejaVuSans-101"/>
       <use x="163.134766" xlink:href="#DejaVuSans-108"/>
       <use x="190.917969" xlink:href="#DejaVuSans-108"/>
       <use x="218.701172" xlink:href="#DejaVuSans-32"/>
       <use x="250.488281" xlink:href="#DejaVuSans-86"/>
       <use x="311.146484" xlink:href="#DejaVuSans-111"/>
       <use x="372.328125" xlink:href="#DejaVuSans-108"/>
       <use x="400.111328" xlink:href="#DejaVuSans-117"/>
       <use x="463.490234" xlink:href="#DejaVuSans-109"/>
       <use x="560.902344" xlink:href="#DejaVuSans-101"/>
       <use x="622.425781" xlink:href="#DejaVuSans-115"/>
      </g>
     </g>
    </g>
   </g>
   <g id="matplotlib.axis_2">
    <g id="ytick_1">
     <g id="line2d_23">
      <defs>
       <path d="M 0 0  L -2 0  " id="md8475cac2e" style="stroke:#000000;stroke-width:0.6;"/>
      </defs>
      <g>
       <use style="stroke:#000000;stroke-width:0.6;" x="40.36" xlink:href="#md8475cac2e" y="504.195952"/>
      </g>
     </g>
    </g>
    <g id="ytick_2">
     <g id="line2d_24">
      <g>
       <use style="stroke:#000000;stroke-width:0.6;" x="40.36" xlink:href="#md8475cac2e" y="481.719704"/>
      </g>
     </g>
    </g>
    <g id="ytick_3">
     <g id="line2d_25">
      <g>
       <use style="stroke:#000000;stroke-width:0.6;" x="40.36" xlink:href="#md8475cac2e" y="465.772551"/>
      </g>
     </g>
    </g>
    <g id="ytick_4">
     <g id="line2d_26">
      <g>
       <use style="stroke:#000000;stroke-width:0.6;" x="40.36" xlink:href="#md8475cac2e" y="453.402979"/>
      </g>
     </g>
    </g>
    <g id="ytick_5">
     <g id="line2d_27">
      <g>
       <use style="stroke:#000000;stroke-width:0.6;" x="40.36" xlink:href="#md8475cac2e" y="443.296303"/>
      </g>
     </g>
    </g>
    <g id="ytick_6">
     <g id="line2d_28">
      <g>
       <use style="stroke:#000000;stroke-width:0.6;" x="40.36" xlink:href="#md8475cac2e" y="434.75123"/>
      </g>
     </g>
    </g>
    <g id="ytick_7">
     <g id="line2d_29">
      <g>
       <use style="stroke:#000000;stroke-width:0.6;" x="40.36" xlink:href="#md8475cac2e" y="427.349151"/>
      </g>
     </g>
    </g>
    <g id="ytick_8">
     <g id="line2d_30">
      <g>
       <use style="stroke:#000000;stroke-width:0.6;" x="40.36" xlink:href="#md8475cac2e" y="420.820054"/>
      </g>
     </g>
    </g>
    <g id="ytick_9">
     <g id="line2d_31">
      <g>
       <use style="stroke:#000000;stroke-width:0.6;" x="40.36" xlink:href="#md8475cac2e" y="376.556178"/>
      </g>
     </g>
    </g>
    <g id="ytick_10">
     <g id="line2d_32">
      <g>
       <use style="stroke:#000000;stroke-width:0.6;" x="40.36" xlink:href="#md8475cac2e" y="354.079929"/>
      </g>
     </g>
    </g>
    <g id="ytick_11">
     <g id="line2d_33">
      <g>
       <use style="stroke:#000000;stroke-width:0.6;" x="40.36" xlink:href="#md8475cac2e" y="338.132777"/>
      </g>
     </g>
    </g>
    <g id="ytick_12">
     <g id="line2d_34">
      <g>
       <use style="stroke:#000000;stroke-width:0.6;" x="40.36" xlink:href="#md8475cac2e" y="325.763205"/>
      </g>
     </g>
    </g>
    <g id="ytick_13">
     <g id="line2d_35">
      <g>
       <use style="stroke:#000000;stroke-width:0.6;" x="40.36" xlink:href="#md8475cac2e" y="315.656528"/>
      </g>
     </g>
    </g>
    <g id="ytick_14">
     <g id="line2d_36">
      <g>
       <use style="stroke:#000000;stroke-width:0.6;" x="40.36" xlink:href="#md8475cac2e" y="307.111455"/>
      </g>
     </g>
    </g>
    <g id="ytick_15">
     <g id="line2d_37">
      <g>
       <use style="stroke:#000000;stroke-width:0.6;" x="40.36" xlink:href="#md8475cac2e" y="299.709376"/>
      </g>
     </g>
    </g>
    <g id="ytick_16">
     <g id="line2d_38">
      <g>
       <use style="stroke:#000000;stroke-width:0.6;" x="40.36" xlink:href="#md8475cac2e" y="293.18028"/>
      </g>
     </g>
    </g>
    <g id="ytick_17">
     <g id="line2d_39">
      <g>
       <use style="stroke:#000000;stroke-width:0.6;" x="40.36" xlink:href="#md8475cac2e" y="248.916403"/>
      </g>
     </g>
    </g>
    <g id="ytick_18">
     <g id="line2d_40">
      <g>
       <use style="stroke:#000000;stroke-width:0.6;" x="40.36" xlink:href="#md8475cac2e" y="226.440154"/>
      </g>
     </g>
    </g>
    <g id="ytick_19">
     <g id="line2d_41">
      <g>
       <use style="stroke:#000000;stroke-width:0.6;" x="40.36" xlink:href="#md8475cac2e" y="210.493002"/>
      </g>
     </g>
    </g>
    <g id="ytick_20">
     <g id="line2d_42">
      <g>
       <use style="stroke:#000000;stroke-width:0.6;" x="40.36" xlink:href="#md8475cac2e" y="198.12343"/>
      </g>
     </g>
    </g>
    <g id="ytick_21">
     <g id="line2d_43">
      <g>
       <use style="stroke:#000000;stroke-width:0.6;" x="40.36" xlink:href="#md8475cac2e" y="188.016754"/>
      </g>
     </g>
    </g>
    <g id="ytick_22">
     <g id="line2d_44">
      <g>
       <use style="stroke:#000000;stroke-width:0.6;" x="40.36" xlink:href="#md8475cac2e" y="179.471681"/>
      </g>
     </g>
    </g>
    <g id="ytick_23">
     <g id="line2d_45">
      <g>
       <use style="stroke:#000000;stroke-width:0.6;" x="40.36" xlink:href="#md8475cac2e" y="172.069602"/>
      </g>
     </g>
    </g>
    <g id="ytick_24">
     <g id="line2d_46">
      <g>
       <use style="stroke:#000000;stroke-width:0.6;" x="40.36" xlink:href="#md8475cac2e" y="165.540505"/>
      </g>
     </g>
    </g>
    <g id="ytick_25">
     <g id="line2d_47">
      <g>
       <use style="stroke:#000000;stroke-width:0.6;" x="40.36" xlink:href="#md8475cac2e" y="121.276629"/>
      </g>
     </g>
    </g>
    <g id="ytick_26">
     <g id="line2d_48">
      <g>
       <use style="stroke:#000000;stroke-width:0.6;" x="40.36" xlink:href="#md8475cac2e" y="98.80038"/>
      </g>
     </g>
    </g>
    <g id="ytick_27">
     <g id="line2d_49">
      <g>
       <use style="stroke:#000000;stroke-width:0.6;" x="40.36" xlink:href="#md8475cac2e" y="82.853228"/>
      </g>
     </g>
    </g>
    <g id="ytick_28">
     <g id="line2d_50">
      <g>
       <use style="stroke:#000000;stroke-width:0.6;" x="40.36" xlink:href="#md8475cac2e" y="70.483656"/>
      </g>
     </g>
    </g>
    <g id="ytick_29">
     <g id="line2d_51">
      <g>
       <use style="stroke:#000000;stroke-width:0.6;" x="40.36" xlink:href="#md8475cac2e" y="60.376979"/>
      </g>
     </g>
    </g>
    <g id="ytick_30">
     <g id="line2d_52">
      <g>
       <use style="stroke:#000000;stroke-width:0.6;" x="40.36" xlink:href="#md8475cac2e" y="51.831906"/>
      </g>
     </g>
    </g>
    <g id="ytick_31">
     <g id="line2d_53">
      <g>
       <use style="stroke:#000000;stroke-width:0.6;" x="40.36" xlink:href="#md8475cac2e" y="44.429827"/>
      </g>
     </g>
    </g>
    <g id="ytick_32">
     <g id="line2d_54">
      <g>
       <use style="stroke:#000000;stroke-width:0.6;" x="40.36" xlink:href="#md8475cac2e" y="37.900731"/>
      </g>
     </g>
    </g>
    <g id="text_23">
     <!-- Number of Entries -->
     <g transform="translate(26.800625 363.300108)rotate(-90)scale(0.2 -0.2)">
      <use xlink:href="#DejaVuSans-78"/>
      <use x="74.804688" xlink:href="#DejaVuSans-117"/>
      <use x="138.183594" xlink:href="#DejaVuSans-109"/>
      <use x="235.595703" xlink:href="#DejaVuSans-98"/>
      <use x="299.072266" xlink:href="#DejaVuSans-101"/>
      <use x="360.595703" xlink:href="#DejaVuSans-114"/>
      <use x="401.708984" xlink:href="#DejaVuSans-32"/>
      <use x="433.496094" xlink:href="#DejaVuSans-111"/>
      <use x="494.677734" xlink:href="#DejaVuSans-102"/>
      <use x="529.882812" xlink:href="#DejaVuSans-32"/>
      <use x="561.669922" xlink:href="#DejaVuSans-69"/>
      <use x="624.853516" xlink:href="#DejaVuSans-110"/>
      <use x="688.232422" xlink:href="#DejaVuSans-116"/>
      <use x="727.441406" xlink:href="#DejaVuSans-114"/>
      <use x="768.554688" xlink:href="#DejaVuSans-105"/>
      <use x="796.337891" xlink:href="#DejaVuSans-101"/>
      <use x="857.861328" xlink:href="#DejaVuSans-115"/>
     </g>
    </g>
   </g>
   <g id="patch_25">
    <path d="M 40.36 533.809591  L 40.36 10.8  " style="fill:none;stroke:#000000;stroke-linecap:square;stroke-linejoin:miter;stroke-width:0.8;"/>
   </g>
   <g id="patch_26">
    <path d="M 1429.2 533.809591  L 1429.2 10.8  " style="fill:none;stroke:#000000;stroke-linecap:square;stroke-linejoin:miter;stroke-width:0.8;"/>
   </g>
   <g id="patch_27">
    <path d="M 40.36 533.809591  L 1429.2 533.809591  " style="fill:none;stroke:#000000;stroke-linecap:square;stroke-linejoin:miter;stroke-width:0.8;"/>
   </g>
   <g id="patch_28">
    <path d="M 40.36 10.8  L 1429.2 10.8  " style="fill:none;stroke:#000000;stroke-linecap:square;stroke-linejoin:miter;stroke-width:0.8;"/>
   </g>
   <g id="text_24">
    <!-- 95568 -->
    <defs>
     <path d="M 10.984375 1.515625  L 10.984375 10.5  Q 14.703125 8.734375 18.5 7.8125  Q 22.3125 6.890625 25.984375 6.890625  Q 35.75 6.890625 40.890625 13.453125  Q 46.046875 20.015625 46.78125 33.40625  Q 43.953125 29.203125 39.59375 26.953125  Q 35.25 24.703125 29.984375 24.703125  Q 19.046875 24.703125 12.671875 31.3125  Q 6.296875 37.9375 6.296875 49.421875  Q 6.296875 60.640625 12.9375 67.421875  Q 19.578125 74.21875 30.609375 74.21875  Q 43.265625 74.21875 49.921875 64.515625  Q 56.59375 54.828125 56.59375 36.375  Q 56.59375 19.140625 48.40625 8.859375  Q 40.234375 -1.421875 26.421875 -1.421875  Q 22.703125 -1.421875 18.890625 -0.6875  Q 15.09375 0.046875 10.984375 1.515625  z M 30.609375 32.421875  Q 37.25 32.421875 41.125 36.953125  Q 45.015625 41.5 45.015625 49.421875  Q 45.015625 57.28125 41.125 61.84375  Q 37.25 66.40625 30.609375 66.40625  Q 23.96875 66.40625 20.09375 61.84375  Q 16.21875 57.28125 16.21875 49.421875  Q 16.21875 41.5 20.09375 36.953125  Q 23.96875 32.421875 30.609375 32.421875  z " id="DejaVuSans-57"/>
     <path d="M 10.796875 72.90625  L 49.515625 72.90625  L 49.515625 64.59375  L 19.828125 64.59375  L 19.828125 46.734375  Q 21.96875 47.46875 24.109375 47.828125  Q 26.265625 48.1875 28.421875 48.1875  Q 40.625 48.1875 47.75 41.5  Q 54.890625 34.8125 54.890625 23.390625  Q 54.890625 11.625 47.5625 5.09375  Q 40.234375 -1.421875 26.90625 -1.421875  Q 22.3125 -1.421875 17.546875 -0.640625  Q 12.796875 0.140625 7.71875 1.703125  L 7.71875 11.625  Q 12.109375 9.234375 16.796875 8.0625  Q 21.484375 6.890625 26.703125 6.890625  Q 35.15625 6.890625 40.078125 11.328125  Q 45.015625 15.765625 45.015625 23.390625  Q 45.015625 31 40.078125 35.4375  Q 35.15625 39.890625 26.703125 39.890625  Q 22.75 39.890625 18.8125 39.015625  Q 14.890625 38.140625 10.796875 36.28125  z " id="DejaVuSans-53"/>
     <path d="M 33.015625 40.375  Q 26.375 40.375 22.484375 35.828125  Q 18.609375 31.296875 18.609375 23.390625  Q 18.609375 15.53125 22.484375 10.953125  Q 26.375 6.390625 33.015625 6.390625  Q 39.65625 6.390625 43.53125 10.953125  Q 47.40625 15.53125 47.40625 23.390625  Q 47.40625 31.296875 43.53125 35.828125  Q 39.65625 40.375 33.015625 40.375  z M 52.59375 71.296875  L 52.59375 62.3125  Q 48.875 64.0625 45.09375 64.984375  Q 41.3125 65.921875 37.59375 65.921875  Q 27.828125 65.921875 22.671875 59.328125  Q 17.53125 52.734375 16.796875 39.40625  Q 19.671875 43.65625 24.015625 45.921875  Q 28.375 48.1875 33.59375 48.1875  Q 44.578125 48.1875 50.953125 41.515625  Q 57.328125 34.859375 57.328125 23.390625  Q 57.328125 12.15625 50.6875 5.359375  Q 44.046875 -1.421875 33.015625 -1.421875  Q 20.359375 -1.421875 13.671875 8.265625  Q 6.984375 17.96875 6.984375 36.375  Q 6.984375 53.65625 15.1875 63.9375  Q 23.390625 74.21875 37.203125 74.21875  Q 40.921875 74.21875 44.703125 73.484375  Q 48.484375 72.75 52.59375 71.296875  z " id="DejaVuSans-54"/>
     <path d="M 31.78125 34.625  Q 24.75 34.625 20.71875 30.859375  Q 16.703125 27.09375 16.703125 20.515625  Q 16.703125 13.921875 20.71875 10.15625  Q 24.75 6.390625 31.78125 6.390625  Q 38.8125 6.390625 42.859375 10.171875  Q 46.921875 13.96875 46.921875 20.515625  Q 46.921875 27.09375 42.890625 30.859375  Q 38.875 34.625 31.78125 34.625  z M 21.921875 38.8125  Q 15.578125 40.375 12.03125 44.71875  Q 8.5 49.078125 8.5 55.328125  Q 8.5 64.0625 14.71875 69.140625  Q 20.953125 74.21875 31.78125 74.21875  Q 42.671875 74.21875 48.875 69.140625  Q 55.078125 64.0625 55.078125 55.328125  Q 55.078125 49.078125 51.53125 44.71875  Q 48 40.375 41.703125 38.8125  Q 48.828125 37.15625 52.796875 32.3125  Q 56.78125 27.484375 56.78125 20.515625  Q 56.78125 9.90625 50.3125 4.234375  Q 43.84375 -1.421875 31.78125 -1.421875  Q 19.734375 -1.421875 13.25 4.234375  Q 6.78125 9.90625 6.78125 20.515625  Q 6.78125 27.484375 10.78125 32.3125  Q 14.796875 37.15625 21.921875 38.8125  z M 18.3125 54.390625  Q 18.3125 48.734375 21.84375 45.5625  Q 25.390625 42.390625 31.78125 42.390625  Q 38.140625 42.390625 41.71875 45.5625  Q 45.3125 48.734375 45.3125 54.390625  Q 45.3125 60.0625 41.71875 63.234375  Q 38.140625 66.40625 31.78125 66.40625  Q 25.390625 66.40625 21.84375 63.234375  Q 18.3125 60.0625 18.3125 54.390625  z " id="DejaVuSans-56"/>
    </defs>
    <g style="fill:#ffffff;" transform="translate(105.977605 53.568331)scale(0.13 -0.13)">
     <use xlink:href="#DejaVuSans-57"/>
     <use x="63.623047" xlink:href="#DejaVuSans-53"/>
     <use x="127.246094" xlink:href="#DejaVuSans-53"/>
     <use x="190.869141" xlink:href="#DejaVuSans-54"/>
     <use x="254.492188" xlink:href="#DejaVuSans-56"/>
    </g>
   </g>
   <g id="text_25">
    <!-- 510 -->
    <defs>
     <path d="M 12.40625 8.296875  L 28.515625 8.296875  L 28.515625 63.921875  L 10.984375 60.40625  L 10.984375 69.390625  L 28.421875 72.90625  L 38.28125 72.90625  L 38.28125 8.296875  L 54.390625 8.296875  L 54.390625 0  L 12.40625 0  z " id="DejaVuSans-49"/>
     <path d="M 31.78125 66.40625  Q 24.171875 66.40625 20.328125 58.90625  Q 16.5 51.421875 16.5 36.375  Q 16.5 21.390625 20.328125 13.890625  Q 24.171875 6.390625 31.78125 6.390625  Q 39.453125 6.390625 43.28125 13.890625  Q 47.125 21.390625 47.125 36.375  Q 47.125 51.421875 43.28125 58.90625  Q 39.453125 66.40625 31.78125 66.40625  z M 31.78125 74.21875  Q 44.046875 74.21875 50.515625 64.515625  Q 56.984375 54.828125 56.984375 36.375  Q 56.984375 17.96875 50.515625 8.265625  Q 44.046875 -1.421875 31.78125 -1.421875  Q 19.53125 -1.421875 13.0625 8.265625  Q 6.59375 17.96875 6.59375 36.375  Q 6.59375 54.828125 13.0625 64.515625  Q 19.53125 74.21875 31.78125 74.21875  z " id="DejaVuSans-48"/>
    </defs>
    <g style="fill:#ffffff;" transform="translate(172.165452 343.660649)scale(0.13 -0.13)">
     <use xlink:href="#DejaVuSans-53"/>
     <use x="63.623047" xlink:href="#DejaVuSans-49"/>
     <use x="127.246094" xlink:href="#DejaVuSans-48"/>
    </g>
   </g>
   <g id="text_26">
    <!-- 5401 -->
    <defs>
     <path d="M 37.796875 64.3125  L 12.890625 25.390625  L 37.796875 25.390625  z M 35.203125 72.90625  L 47.609375 72.90625  L 47.609375 25.390625  L 58.015625 25.390625  L 58.015625 17.1875  L 47.609375 17.1875  L 47.609375 0  L 37.796875 0  L 37.796875 17.1875  L 4.890625 17.1875  L 4.890625 26.703125  z " id="DejaVuSans-52"/>
    </defs>
    <g style="fill:#ffffff;" transform="translate(225.946424 212.842133)scale(0.13 -0.13)">
     <use xlink:href="#DejaVuSans-53"/>
     <use x="63.623047" xlink:href="#DejaVuSans-52"/>
     <use x="127.246094" xlink:href="#DejaVuSans-48"/>
     <use x="190.869141" xlink:href="#DejaVuSans-49"/>
    </g>
   </g>
   <g id="text_27">
    <!-- 530 -->
    <defs>
     <path d="M 40.578125 39.3125  Q 47.65625 37.796875 51.625 33  Q 55.609375 28.21875 55.609375 21.1875  Q 55.609375 10.40625 48.1875 4.484375  Q 40.765625 -1.421875 27.09375 -1.421875  Q 22.515625 -1.421875 17.65625 -0.515625  Q 12.796875 0.390625 7.625 2.203125  L 7.625 11.71875  Q 11.71875 9.328125 16.59375 8.109375  Q 21.484375 6.890625 26.8125 6.890625  Q 36.078125 6.890625 40.9375 10.546875  Q 45.796875 14.203125 45.796875 21.1875  Q 45.796875 27.640625 41.28125 31.265625  Q 36.765625 34.90625 28.71875 34.90625  L 20.21875 34.90625  L 20.21875 43.015625  L 29.109375 43.015625  Q 36.375 43.015625 40.234375 45.921875  Q 44.09375 48.828125 44.09375 54.296875  Q 44.09375 59.90625 40.109375 62.90625  Q 36.140625 65.921875 28.71875 65.921875  Q 24.65625 65.921875 20.015625 65.03125  Q 15.375 64.15625 9.8125 62.3125  L 9.8125 71.09375  Q 15.4375 72.65625 20.34375 73.4375  Q 25.25 74.21875 29.59375 74.21875  Q 40.828125 74.21875 47.359375 69.109375  Q 53.90625 64.015625 53.90625 55.328125  Q 53.90625 49.265625 50.4375 45.09375  Q 46.96875 40.921875 40.578125 39.3125  z " id="DejaVuSans-51"/>
    </defs>
    <g style="fill:#ffffff;" transform="translate(287.998646 341.528338)scale(0.13 -0.13)">
     <use xlink:href="#DejaVuSans-53"/>
     <use x="63.623047" xlink:href="#DejaVuSans-51"/>
     <use x="127.246094" xlink:href="#DejaVuSans-48"/>
    </g>
   </g>
   <g id="text_28">
    <!-- 650 -->
    <g style="fill:#ffffff;" transform="translate(345.915243 330.214669)scale(0.13 -0.13)">
     <use xlink:href="#DejaVuSans-54"/>
     <use x="63.623047" xlink:href="#DejaVuSans-53"/>
     <use x="127.246094" xlink:href="#DejaVuSans-48"/>
    </g>
   </g>
   <g id="text_29">
    <!-- 51005 -->
    <g style="fill:#ffffff;" transform="translate(395.560591 88.375665)scale(0.13 -0.13)">
     <use xlink:href="#DejaVuSans-53"/>
     <use x="63.623047" xlink:href="#DejaVuSans-49"/>
     <use x="127.246094" xlink:href="#DejaVuSans-48"/>
     <use x="190.869141" xlink:href="#DejaVuSans-48"/>
     <use x="254.492188" xlink:href="#DejaVuSans-53"/>
    </g>
   </g>
   <g id="text_30">
    <!-- 3715 -->
    <defs>
     <path d="M 8.203125 72.90625  L 55.078125 72.90625  L 55.078125 68.703125  L 28.609375 0  L 18.3125 0  L 43.21875 64.59375  L 8.203125 64.59375  z " id="DejaVuSans-55"/>
    </defs>
    <g style="fill:#ffffff;" transform="translate(457.612813 233.585557)scale(0.13 -0.13)">
     <use xlink:href="#DejaVuSans-51"/>
     <use x="63.623047" xlink:href="#DejaVuSans-55"/>
     <use x="127.246094" xlink:href="#DejaVuSans-49"/>
     <use x="190.869141" xlink:href="#DejaVuSans-53"/>
    </g>
   </g>
   <g id="text_31">
    <!-- 5700 -->
    <g style="fill:#ffffff;" transform="translate(515.52941 209.855276)scale(0.13 -0.13)">
     <use xlink:href="#DejaVuSans-53"/>
     <use x="63.623047" xlink:href="#DejaVuSans-55"/>
     <use x="127.246094" xlink:href="#DejaVuSans-48"/>
     <use x="190.869141" xlink:href="#DejaVuSans-48"/>
    </g>
   </g>
   <g id="text_32">
    <!-- 20396 -->
    <defs>
     <path d="M 19.1875 8.296875  L 53.609375 8.296875  L 53.609375 0  L 7.328125 0  L 7.328125 8.296875  Q 12.9375 14.109375 22.625 23.890625  Q 32.328125 33.6875 34.8125 36.53125  Q 39.546875 41.84375 41.421875 45.53125  Q 43.3125 49.21875 43.3125 52.78125  Q 43.3125 58.59375 39.234375 62.25  Q 35.15625 65.921875 28.609375 65.921875  Q 23.96875 65.921875 18.8125 64.3125  Q 13.671875 62.703125 7.8125 59.421875  L 7.8125 69.390625  Q 13.765625 71.78125 18.9375 73  Q 24.125 74.21875 28.421875 74.21875  Q 39.75 74.21875 46.484375 68.546875  Q 53.21875 62.890625 53.21875 53.421875  Q 53.21875 48.921875 51.53125 44.890625  Q 49.859375 40.875 45.40625 35.40625  Q 44.1875 33.984375 37.640625 27.21875  Q 31.109375 20.453125 19.1875 8.296875  z " id="DejaVuSans-50"/>
    </defs>
    <g style="fill:#ffffff;" transform="translate(569.310382 139.184943)scale(0.13 -0.13)">
     <use xlink:href="#DejaVuSans-50"/>
     <use x="63.623047" xlink:href="#DejaVuSans-48"/>
     <use x="127.246094" xlink:href="#DejaVuSans-51"/>
     <use x="190.869141" xlink:href="#DejaVuSans-57"/>
     <use x="254.492188" xlink:href="#DejaVuSans-54"/>
    </g>
   </g>
   <g id="text_33">
    <!-- 53581 -->
    <g style="fill:#ffffff;" transform="translate(627.226979 85.644421)scale(0.13 -0.13)">
     <use xlink:href="#DejaVuSans-53"/>
     <use x="63.623047" xlink:href="#DejaVuSans-51"/>
     <use x="127.246094" xlink:href="#DejaVuSans-53"/>
     <use x="190.869141" xlink:href="#DejaVuSans-56"/>
     <use x="254.492188" xlink:href="#DejaVuSans-49"/>
    </g>
   </g>
   <g id="text_34">
    <!-- 5654 -->
    <g style="fill:#ffffff;" transform="translate(689.279201 210.304447)scale(0.13 -0.13)">
     <use xlink:href="#DejaVuSans-53"/>
     <use x="63.623047" xlink:href="#DejaVuSans-54"/>
     <use x="127.246094" xlink:href="#DejaVuSans-53"/>
     <use x="190.869141" xlink:href="#DejaVuSans-52"/>
    </g>
   </g>
   <g id="text_35">
    <!-- 308 -->
    <g style="fill:#ffffff;" transform="translate(751.331424 371.616243)scale(0.13 -0.13)">
     <use xlink:href="#DejaVuSans-51"/>
     <use x="63.623047" xlink:href="#DejaVuSans-48"/>
     <use x="127.246094" xlink:href="#DejaVuSans-56"/>
    </g>
   </g>
   <g id="text_36">
    <!-- 18 -->
    <g style="fill:#ffffff;" transform="translate(813.383646 529.031596)scale(0.13 -0.13)">
     <use xlink:href="#DejaVuSans-49"/>
     <use x="63.623047" xlink:href="#DejaVuSans-56"/>
    </g>
   </g>
   <g id="text_37">
    <!-- 341 -->
    <g style="fill:#ffffff;" transform="translate(867.164618 365.974097)scale(0.13 -0.13)">
     <use xlink:href="#DejaVuSans-51"/>
     <use x="63.623047" xlink:href="#DejaVuSans-52"/>
     <use x="127.246094" xlink:href="#DejaVuSans-49"/>
    </g>
   </g>
   <g id="text_38">
    <!-- 56 -->
    <g style="fill:#ffffff;" transform="translate(929.21684 466.11597)scale(0.13 -0.13)">
     <use xlink:href="#DejaVuSans-53"/>
     <use x="63.623047" xlink:href="#DejaVuSans-54"/>
    </g>
   </g>
   <g id="text_39">
    <!-- 492 -->
    <g style="fill:#ffffff;" transform="translate(982.997812 345.652477)scale(0.13 -0.13)">
     <use xlink:href="#DejaVuSans-52"/>
     <use x="63.623047" xlink:href="#DejaVuSans-57"/>
     <use x="127.246094" xlink:href="#DejaVuSans-50"/>
    </g>
   </g>
   <g id="text_40">
    <!-- 777 -->
    <g style="fill:#ffffff;" transform="translate(1040.914409 320.321608)scale(0.13 -0.13)">
     <use xlink:href="#DejaVuSans-55"/>
     <use x="63.623047" xlink:href="#DejaVuSans-55"/>
     <use x="127.246094" xlink:href="#DejaVuSans-55"/>
    </g>
   </g>
   <g id="text_41">
    <!-- 52 -->
    <g style="fill:#ffffff;" transform="translate(1102.966632 470.224015)scale(0.13 -0.13)">
     <use xlink:href="#DejaVuSans-53"/>
     <use x="63.623047" xlink:href="#DejaVuSans-50"/>
    </g>
   </g>
   <g id="text_42">
    <!-- 24 -->
    <g style="fill:#ffffff;" transform="translate(1160.883229 513.084444)scale(0.13 -0.13)">
     <use xlink:href="#DejaVuSans-50"/>
     <use x="63.623047" xlink:href="#DejaVuSans-52"/>
    </g>
   </g>
   <g id="text_43">
    <!-- 236 -->
    <g style="fill:#ffffff;" transform="translate(1214.664201 386.376342)scale(0.13 -0.13)">
     <use xlink:href="#DejaVuSans-50"/>
     <use x="63.623047" xlink:href="#DejaVuSans-51"/>
     <use x="127.246094" xlink:href="#DejaVuSans-54"/>
    </g>
   </g>
   <g id="text_44">
    <!-- 295 -->
    <g style="fill:#ffffff;" transform="translate(1272.580798 374.00677)scale(0.13 -0.13)">
     <use xlink:href="#DejaVuSans-50"/>
     <use x="63.623047" xlink:href="#DejaVuSans-57"/>
     <use x="127.246094" xlink:href="#DejaVuSans-53"/>
    </g>
   </g>
   <g id="text_45">
    <!-- 790 -->
    <g style="fill:#ffffff;" transform="translate(1330.497395 319.401827)scale(0.13 -0.13)">
     <use xlink:href="#DejaVuSans-55"/>
     <use x="63.623047" xlink:href="#DejaVuSans-57"/>
     <use x="127.246094" xlink:href="#DejaVuSans-48"/>
    </g>
   </g>
  </g>
 </g>
 <defs>
  <clipPath id="pc0f5f34f06">
   <rect height="523.009591" width="1388.84" x="40.36" y="10.8"/>
  </clipPath>
 </defs>
</svg>