<?xml version="1.0" encoding="UTF-8" standalone="no"?>
<!-- Created with Inkscape (http://www.inkscape.org/) -->

<svg
   xmlns:dc="http://purl.org/dc/elements/1.1/"
   xmlns:cc="http://creativecommons.org/ns#"
   xmlns:rdf="http://www.w3.org/1999/02/22-rdf-syntax-ns#"
   xmlns:svg="http://www.w3.org/2000/svg"
   xmlns="http://www.w3.org/2000/svg"
   xmlns:sodipodi="http://sodipodi.sourceforge.net/DTD/sodipodi-0.dtd"
   xmlns:inkscape="http://www.inkscape.org/namespaces/inkscape"
   id="svg2"
   version="1.1"
   inkscape:version="0.48+devel r10087"
   width="100"
   height="100"
   sodipodi:docname="tbp_logo_falko_03.png">
  <metadata
     id="metadata8">
    <rdf:RDF>
      <cc:Work
         rdf:about="">
        <dc:format>image/svg+xml</dc:format>
        <dc:type
           rdf:resource="http://purl.org/dc/dcmitype/StillImage" />
        <dc:title></dc:title>
      </cc:Work>
    </rdf:RDF>
  </metadata>
  <defs
     id="defs6" />
  <sodipodi:namedview
     pagecolor="#ffffff"
     bordercolor="#666666"
     borderopacity="1"
     objecttolerance="10"
     gridtolerance="10"
     guidetolerance="10"
     inkscape:pageopacity="0"
     inkscape:pageshadow="2"
     inkscape:window-width="1410"
     inkscape:window-height="769"
     id="namedview4"
     showgrid="false"
     inkscape:zoom="5.84"
     inkscape:cx="53.209766"
     inkscape:cy="49.1861"
     inkscape:window-x="0"
     inkscape:window-y="22"
     inkscape:window-maximized="0"
     inkscape:current-layer="svg2" />
  <path
     style="fill:#3774af;fill-opacity:1"
     d="M 22.245424,99.034129 C 15.934166,97.902075 12.439259,95.913542 7.6728884,90.74264 1.0917584,83.602958 0.84246836,82.115951 0.84246836,50 0.84246836,17.594728 1.0606484,16.35377 8.0766784,8.8530612 15.568591,0.84360125 17.307186,0.50000025 50.342466,0.50000025 c 33.03528,0 34.773875,0.343601 42.265787,8.35306095 C 99.624288,16.35377 99.842466,17.594728 99.842466,50 c 0,32.148278 -0.241597,33.581253 -6.882292,40.820708 -7.537958,8.217621 -9.275793,8.605224 -39.617708,8.836235 -14.575,0.110968 -28.568669,-0.169298 -31.097042,-0.622814 z m 56.548669,-3.449471 c 5.610759,-2.344324 7.291319,-8.210642 3.642903,-12.716246 -1.441177,-1.779778 -1.661292,-2.809408 -0.903356,-4.225624 0.551163,-1.029858 0.811562,-3.17079 0.578663,-4.757628 C 81.752045,71.430566 82.026373,71 83.950559,71 c 1.243939,0 4.474602,0.279492 5.923544,0.830379 3.484296,1.324727 2.022379,5.147253 -1.839145,6.992383 -1.72124,0.82245 -2.684085,1.982377 -2.488516,2.997883 0.777728,4.038418 7.991362,1.425977 9.896118,-3.583911 C 97.768608,72.118763 93.564155,67 86.212922,67 c -2.613832,0 -5.031289,0.451217 -5.372127,1.002704 -0.414252,0.670273 -1.24086,0.670273 -2.493276,0 C 77.317055,67.451217 71.719365,67 65.908207,67 c -9.899074,0 -10.565741,0.126194 -10.565741,2 0,1.666667 0.666667,2 4,2 l 4,0 0,12.40401 0,12.40401 5.110261,0.03958 c 5.041139,-0.03275 7.981814,0.714846 10.341366,-0.262942 z M 68.342466,81.5 l 0,-10.5 2.80887,0 c 6.269164,0 9.440188,6.620525 4.469997,7.968185 -1.517532,0.411476 -2.649917,1.363064 -3.129718,2.295948 -0.479801,0.932884 -0.307019,1.847065 0.785783,2.183729 0.6875,0.211801 1.802568,0.656251 3.315068,0.987667 2.086155,0.457115 2.75,1.192978 2.75,3.048339 C 79.342466,90.433888 76.7644,92 71.908207,92 l -3.565741,0 z m -45.263582,6.25 c 2.150582,-3.9875 5.819784,-11.907416 8.153782,-17.599814 6.09043,-14.85397 6.318325,-15.284145 7.796604,-14.716876 1.823854,0.699878 6.369839,-1.142913 7.949898,-3.222625 1.95943,-2.57905 1.61948,-7.615286 -0.714311,-10.582219 l -2.077608,-2.641251 2.159168,-3.493608 C 47.533959,33.572123 48.751397,32 49.051834,32 c 0.300437,0 0.258417,1.8 -0.09338,4 -0.499651,3.124645 -0.321697,4 0.813174,4 2.022737,0 3.021306,-1.949529 1.683703,-3.287132 C 49.827317,35.084851 50.096919,32 51.867217,32 c 0.838613,0 1.966382,1.161577 2.506153,2.581282 0.539771,1.419706 1.513008,2.404081 2.162749,2.1875 2.241777,-0.747259 1.961679,-2.759227 -0.515231,-3.700946 -5.228619,-1.987917 -3.947282,-5.64593 1.571578,-4.486606 2.047503,0.43011 2.75,0.189279 2.75,-0.942758 0,-2.045142 -2.037811,-3.195327 -2.974894,-1.679095 -0.908604,1.470152 -5.2155,1.005484 -5.750457,-0.620413 -0.210103,-0.638569 0.629667,-2.103552 1.866156,-3.255517 1.644071,-1.531685 1.950612,-2.39203 1.14081,-3.201832 -1.57026,-1.57026 -2.925308,-0.41315 -3.627453,3.097576 -0.79579,3.978947 -3.50991,3.992069 -4.304162,0.02081 -0.410667,-2.053333 -1.191667,-3 -2.475,-3 -1.03125,0 -1.875,0.675 -1.875,1.5 0,0.825 0.644676,1.5 1.432612,1.5 1.382818,0 3.219833,3.680888 2.297382,4.603339 -0.248939,0.24894 -1.669322,-0.01 -3.156405,-0.575361 -3.683379,-1.400418 -4.573589,-1.296308 -4.573589,0.53488 0,0.889584 0.753894,1.486171 1.75,1.384846 5.145277,-0.523386 6.21889,-0.01 5.859808,2.802296 -0.637583,4.993406 -2.743935,8.25 -5.336064,8.25 -1.322875,0 -3.255857,0.455244 -4.295517,1.011652 -1.585015,0.848275 -2.302728,0.404694 -4.444156,-2.7467 -2.732986,-4.02195 -1.771249,-5.694558 1.547422,-2.691202 1.417877,1.283161 2.269351,1.475406 3.055003,0.689754 1.299215,-1.299215 0.151064,-3.586088 -1.487647,-2.963079 -0.631867,0.240225 -2.273849,0.01489 -3.648849,-0.500745 -2.432874,-0.912344 -2.447708,-0.976068 -0.552457,-2.373288 1.071149,-0.789675 2.720779,-1.190356 3.665843,-0.890405 2.101713,0.667058 3.522977,-1.299624 2.02311,-2.799491 -0.785652,-0.785653 -1.605521,-0.62201 -2.941608,0.587132 C 32.518551,27.245633 30.932918,28 30.013725,28 c -2.094216,0 -2.207589,-3.309996 -0.171259,-5 2.102117,-1.744602 1.86658,-3 -0.562858,-3 -1.365775,0 -2.002704,0.591362 -1.884846,1.75 0.356449,3.504161 -0.08423,5.048277 -1.607573,5.632838 -1.1013,0.422608 -1.980902,-0.421847 -3.01342,-2.893011 -1.479052,-3.539868 -2.785503,-4.343771 -3.962989,-2.438558 -0.357346,0.578198 0.516097,2.131711 1.940983,3.452251 3.652677,3.385187 3.301459,4.710951 -1.146495,4.327737 -3.014828,-0.259742 -3.807493,0.04303 -4.100865,1.566391 -0.291202,1.512089 0.05495,1.760241 1.737198,1.24536 1.155476,-0.353654 3.000865,-0.920492 4.100865,-1.259639 2.855068,-0.880263 2.514816,1.235014 -0.674037,4.190343 -2.046954,1.897053 -2.398716,2.753535 -1.5,3.652251 1.381035,1.381035 2.809408,0.219633 3.338456,-2.714479 0.197201,-1.093685 1.199261,-2.150423 2.226798,-2.348309 1.632727,-0.314434 1.784994,0.084 1.207833,3.160536 -0.704302,3.754251 0.718038,5.759201 2.688082,3.789157 0.817157,-0.817157 0.794004,-1.431732 -0.08713,-2.312868 -0.66,-0.66 -1.2,-2.077517 -1.2,-3.150038 0,-1.460917 0.728122,-0.944895 2.902889,2.057283 2.379683,3.285057 2.779961,4.608376 2.220849,7.342129 -0.606437,2.965142 -1.205351,3.468305 -5.40289,4.539107 -2.596466,0.662364 -4.720848,0.800923 -4.720848,0.307909 0,-0.493015 -0.675,-0.89639 -1.5,-0.89639 -1.708882,0 -2.10463,-4.508284 -0.483688,-5.510081 C 21.690005,42.667175 20.627299,41 18.771631,41 c -1.140837,0 -1.311982,0.880627 -0.797016,4.10105 0.585229,3.659821 0.452014,4.062652 -1.238182,3.744158 -1.041682,-0.196291 -2.338902,-1.368451 -2.882711,-2.604802 -1.060898,-2.411952 -2.83428,-2.486182 -3.290254,-0.137722 -0.15977,0.822876 1.015437,1.925544 2.750003,2.58027 1.665947,0.628825 3.028995,1.857407 3.028995,2.730182 0,1.491182 -0.654514,1.731248 -5.411683,1.984924 -1.0514246,0.05607 -2.0876846,0.623202 -2.3027846,1.260299 -0.68879,2.040043 1.5791396,2.476415 4.1422456,0.797006 4.005226,-2.624325 6.207398,0.08031 2.974261,3.652881 C 14.030999,61.001648 14.590745,63 16.8346,63 c 0.880493,0 1.343315,-1.082726 1.288402,-3.014086 -0.04713,-1.657748 0.19709,-3.296873 0.542718,-3.642501 1.010678,-1.010679 3.676746,1.729558 3.676746,3.779032 0,1.032655 0.6,1.877555 1.333333,1.877555 2.560422,0 2.615451,-1.318124 0.150403,-3.602654 -1.366055,-1.266016 -2.483736,-2.773335 -2.483736,-3.349597 0,-1.61811 3.130919,-1.239244 5.194888,0.628622 1.336087,1.209142 2.155956,1.372785 2.941608,0.587133 1.256153,-1.256153 0.274461,-3.385895 -1.461903,-3.171542 -0.646026,0.07975 -2.299593,0.05145 -3.674593,-0.0629 -1.815878,-0.151008 -1.131755,-0.585606 2.5,-1.588158 4.79564,-1.323844 5.070801,-1.289535 6.732258,0.839418 C 34.527467,53.501146 35.12142,54.95 34.894622,55.5 28.875057,70.097809 24.831689,79.176388 21.483429,85.612166 17.126569,93.986602 16.778131,95 18.2556,95 c 0.502224,0 2.672701,-3.2625 4.823284,-7.25 z M 69.78775,64.088533 c 0.309824,-0.501307 -0.223138,-2.281787 -1.184362,-3.956622 -1.387976,-2.418409 -1.493183,-3.29965 -0.511166,-4.281667 0.982017,-0.982017 1.832114,-0.796166 4.130344,0.902989 2.916514,2.156272 4.1199,2.033623 4.1199,-0.4199 C 76.342466,55.6 75.47927,55 74.424253,55 c -5.479895,0 -6.848458,-3.188485 -2.081787,-4.850155 3.118269,-1.087035 3.826497,-2.521008 1.848785,-3.743301 -0.664167,-0.410478 -1.968672,0.410699 -3.083406,1.940983 -2.756004,3.783385 -3.948768,3.285302 -3.58286,-1.496153 0.216178,-2.82486 -0.115857,-4.298829 -1.040582,-4.619354 -1.069716,-0.370783 -1.210295,0.4039 -0.662102,3.648626 C 66.374499,49.149075 66.215546,50 65.052809,50 c -0.806,0 -2.025654,-0.675 -2.710343,-1.5 -0.684689,-0.825 -0.909689,-1.5 -0.5,-1.5 0.409689,0 0.188801,-0.670045 -0.490862,-1.48899 C 60.671941,44.692066 59.71684,44.268624 59.229159,44.570027 57.822307,45.43951 58.200276,48 59.735477,48 c 0.766156,0 1.652033,0.675 1.968615,1.5 0.709411,1.848695 0.717429,1.848804 -3.832576,-0.05231 -2.043359,-0.85377 -4.235814,-1.357408 -4.872124,-1.119197 -0.636309,0.238212 -0.03193,0.893979 1.343074,1.45726 1.375,0.563281 3.85,1.599949 5.5,2.303706 l 3,1.27956 -3.921832,0.56549 c -4.056658,0.584932 -5.766073,2.395672 -3.193545,3.382843 0.808033,0.310071 2.007152,-0.08449 2.664709,-0.876793 1.236768,-1.490215 4.975028,-2.015029 4.918865,-0.690559 -0.05748,1.35548 -2.664889,4.25 -3.82844,4.25 -0.626866,0 -1.139757,0.675 -1.139757,1.5 0,0.833333 0.888889,1.5 2,1.5 1.289857,0 2,-0.666667 2,-1.877555 0,-2.009338 2.657961,-4.797817 3.638554,-3.817224 0.324622,0.324622 0.714415,2.076247 0.866207,3.8925 0.151791,1.816254 0.325317,3.414779 0.385612,3.552279 0.271978,0.620234 2.046757,0.160743 2.554911,-0.661467 z M 27.105599,45.082866 c -0.399948,-2.15397 -2.427507,-2.395586 -3.136451,-0.373758 -0.345383,0.984991 -0.880432,2.324151 -1.188999,2.975912 -0.432416,0.91336 0.02923,0.91336 2.013776,0 1.416144,-0.651761 2.456397,-1.82273 2.311674,-2.602154 z M 88.716824,41.939644 C 88.370338,39.77284 88.398947,38 88.780404,38 c 1.714165,0 4.562067,2.206863 4.562067,3.535184 0,0.805649 0.675,1.464816 1.5,1.464816 2.46009,0 1.699477,-2.973661 -1.025626,-4.009743 C 91.333218,38.045984 89.559753,35.449384 90.652266,34.356872 90.958545,34.050592 92.814138,33.8 94.775804,33.8 c 2.315729,0 3.566667,-0.470323 3.566667,-1.340983 0,-2.11416 -1.536201,-2.522992 -3.602678,-0.958787 -2.37015,1.794067 -5.397322,1.918734 -5.397322,0.222276 0,-0.702621 0.70107,-2.278411 1.557933,-3.501754 1.61458,-2.305136 1.10547,-4.608553 -0.872849,-3.949113 -0.622398,0.207466 -1.204685,1.829745 -1.293971,3.605065 -0.08929,1.775319 -0.443461,3.508978 -0.787058,3.852574 C 87.078882,32.596922 84.413002,28.881014 84.374274,26.75 84.356784,25.7875 83.742471,25 83.009138,25 c -2.560422,0 -2.615451,1.318124 -0.150403,3.602654 1.366055,1.266016 2.483736,2.773335 2.483736,3.349597 0,1.335825 -3.679794,1.374871 -4.5,0.04775 -0.339919,-0.55 -1.528976,-1 -2.64235,-1 -3.302666,0 -1.524239,2.446976 2.221841,3.057079 l 3.420509,0.55708 -4,1.187344 c -2.2,0.653039 -4.5625,1.189853 -5.25,1.19292 -0.6875,0.0031 -1.25,0.455577 -1.25,1.005577 0,1.217006 -0.56363,1.259386 5.808288,-0.436732 3.871117,-1.03044 5.207307,-1.094912 4.935307,-0.238132 -0.205139,0.646175 -1.356369,1.619072 -2.558288,2.161992 C 79.060695,40.601538 78.544618,44 80.842471,44 c 0.825,0 1.5,-0.527067 1.5,-1.171259 0,-1.395814 2.953932,-4.828741 4.154988,-4.828741 1.301859,0 1.000062,4.44495 -0.396629,5.841641 -0.988854,0.988854 -0.947677,1.42332 0.202254,2.134017 2.32932,1.439598 3.086797,0.173024 2.41374,-4.036014 z m -44.515886,-9.08463 c 1.186261,-1.899506 1.147208,-2.071171 -0.34124,-1.5 C 42.935254,31.709756 41.540695,32 40.760679,32 c -0.780017,0 -1.418213,0.675 -1.418213,1.5 0,2.247878 3.327741,1.806104 4.858472,-0.644986 z M 73.342466,19.5 c 0,-4.306776 2.638375,-4.85352 3.619206,-0.75 0.965943,4.041231 1.398828,4.479923 3.060122,3.101171 1.294499,-1.074339 1.304735,-1.390923 0.07431,-2.298558 C 79.311282,18.973676 78.129815,17.4875 77.470625,16.25 76.409965,14.258817 76.507766,14 78.320851,14 c 1.126814,0 2.922181,0.545465 3.989705,1.212145 2.244062,1.40144 3.548461,0.576349 2.677408,-1.69358 -0.398634,-1.038822 -1.368039,-1.38737 -2.873539,-1.033177 -4.782506,1.125162 -6.510236,-3.9565518 -1.766912,-5.1969588 1.097224,-0.286931 1.994953,-1.144208 1.994953,-1.905061 0,-2.189293 -1.88629,-1.620224 -4.529966,1.366632 -2.065047,2.333115 -2.589865,2.522608 -3.461985,1.25 -0.565374,-0.825 -0.796822,-2.484922 -0.51433,-3.688715 0.587438,-2.503271 -1.143069,-4.06193595 -2.73847,-2.466535 -0.721078,0.721079 -0.743307,1.492321 -0.0681,2.362868 3.420575,4.410176 1.188839,6.6683678 -2.723622,2.755907 -2.132058,-2.132058 -3.963525,-1.856893 -3.963525,0.595492 0,0.823149 0.964707,1.447548 2.25,1.456296 1.2375,0.0084 2.925,0.458422 3.75,0.9999998 1.333333,0.875277 1.333333,1.096563 0,1.991575 -0.825,0.553789 -2.61665,0.891289 -3.981445,0.75 -1.696834,-0.175662 -2.589545,0.296447 -2.823324,1.493112 -0.367703,1.882183 2.239374,2.473846 3.304769,0.75 0.339919,-0.55 1.378976,-0.981268 2.309017,-0.958373 1.180855,0.02907 0.509428,1.084941 -2.225657,3.500026 -2.154153,1.90212 -3.608392,3.766648 -3.231644,4.143396 0.376748,0.376749 2.476737,-1.06459 4.66664,-3.202974 3.528427,-3.445416 3.981644,-3.643934 3.981644,-1.74404 0,1.179162 -0.45,2.422046 -1,2.761965 -1.544986,0.954854 -1.181394,3.5 0.5,3.5 1.047619,0 1.5,-1.055556 1.499998,-3.5 z"
     id="path3071"
     inkscape:connector-curvature="0"
     sodipodi:nodetypes="sssssssssscsssssssssssssscccccccsssssssccssssscssssssssssssssssssssscssssssssssssssssssssssssssssssssssssssssssssssssssssssssssssssssssssssssssssssssssssssssssscsssssssssssssssssssssssssssssssssssssscscssssssssssssssssssssssssssssssssscsssssssssssss" />
</svg>
